# MagicaVoxel @ Ephtracy

# material
mtllib glass.mtl
usemtl palette

# normals
vn -1 0 0
vn 1 0 0
vn 0 0 1
vn 0 0 -1
vn 0 -1 0
vn 0 1 0

# texcoords
vt 0.412109 0.5
vt 0.677734 0.5
vt 0.689453 0.5
vt 0.955078 0.5
vt 0.990234 0.5

# verts
v -10 0 1
v -10 0 -0
v -10 40 1
v -10 40 -0
v -10 41 5
v -10 41 1
v -10 41 -0
v -10 50 5
v -10 50 1
v -10 50 -0
v 10 0 1
v 10 0 -0
v 10 40 1
v 10 40 -0
v 10 41 5
v 10 41 1
v 10 41 -0
v 10 50 5
v 10 50 1
v 10 50 -0
v -10 41 5
v -10 50 5
v 10 41 5
v 10 50 5
v -10 0 1
v -10 40 1
v -10 41 1
v -9 1 1
v -9 8 1
v -9 39 1
v -8 8 1
v -8 33 1
v -8 34 1
v -8 37 1
v -7 32 1
v -7 33 1
v -7 34 1
v -7 36 1
v -7 37 1
v -7 38 1
v -6 27 1
v -6 28 1
v -6 31 1
v -6 32 1
v -6 33 1
v -6 35 1
v -6 36 1
v -6 37 1
v -5 26 1
v -5 27 1
v -5 28 1
v -5 31 1
v -5 32 1
v -5 35 1
v -5 36 1
v -4 25 1
v -4 26 1
v -4 27 1
v -3 25 1
v -3 26 1
v -2 35 1
v -2 36 1
v -1 34 1
v -1 35 1
v -1 36 1
v 0 33 1
v 0 34 1
v 0 35 1
v 1 27 1
v 1 28 1
v 1 33 1
v 1 34 1
v 2 26 1
v 2 27 1
v 2 28 1
v 2 37 1
v 2 38 1
v 3 25 1
v 3 26 1
v 3 27 1
v 3 36 1
v 3 37 1
v 3 38 1
v 4 25 1
v 4 26 1
v 4 35 1
v 4 36 1
v 4 37 1
v 5 29 1
v 5 30 1
v 5 35 1
v 5 36 1
v 6 28 1
v 6 29 1
v 6 30 1
v 7 27 1
v 7 28 1
v 7 29 1
v 8 27 1
v 8 28 1
v 9 1 1
v 9 38 1
v 9 39 1
v 10 0 1
v 10 40 1
v 10 41 1
v -10 0 -0
v -10 40 -0
v -10 41 -0
v -10 50 -0
v -9 1 -0
v -9 8 -0
v -9 39 -0
v -8 8 -0
v -8 33 -0
v -8 34 -0
v -8 37 -0
v -7 32 -0
v -7 33 -0
v -7 34 -0
v -7 36 -0
v -7 37 -0
v -7 38 -0
v -6 27 -0
v -6 28 -0
v -6 31 -0
v -6 32 -0
v -6 33 -0
v -6 35 -0
v -6 36 -0
v -6 37 -0
v -5 26 -0
v -5 27 -0
v -5 28 -0
v -5 31 -0
v -5 32 -0
v -5 35 -0
v -5 36 -0
v -4 25 -0
v -4 26 -0
v -4 27 -0
v -3 25 -0
v -3 26 -0
v -2 35 -0
v -2 36 -0
v -1 34 -0
v -1 35 -0
v -1 36 -0
v 0 33 -0
v 0 34 -0
v 0 35 -0
v 1 27 -0
v 1 28 -0
v 1 33 -0
v 1 34 -0
v 2 26 -0
v 2 27 -0
v 2 28 -0
v 2 37 -0
v 2 38 -0
v 3 25 -0
v 3 26 -0
v 3 27 -0
v 3 36 -0
v 3 37 -0
v 3 38 -0
v 4 25 -0
v 4 26 -0
v 4 35 -0
v 4 36 -0
v 4 37 -0
v 5 29 -0
v 5 30 -0
v 5 35 -0
v 5 36 -0
v 6 28 -0
v 6 29 -0
v 6 30 -0
v 7 27 -0
v 7 28 -0
v 7 29 -0
v 8 27 -0
v 8 28 -0
v 9 1 -0
v 9 38 -0
v 9 39 -0
v 10 0 -0
v 10 40 -0
v 10 41 -0
v 10 50 -0
v -10 0 1
v 10 0 1
v -10 0 -0
v 10 0 -0
v -10 41 5
v 10 41 5
v -10 41 1
v 10 41 1
v -10 50 5
v 10 50 5
v -10 50 1
v 10 50 1
v -10 50 -0
v 10 50 -0

# faces
f 3/5/1 2/5/1 1/5/1
f 4/5/1 2/5/1 3/5/1
f 6/4/1 4/4/1 3/4/1
f 7/4/1 4/4/1 6/4/1
f 8/4/1 6/4/1 5/4/1
f 9/1/1 7/1/1 6/1/1
f 9/4/1 6/4/1 8/4/1
f 10/1/1 7/1/1 9/1/1
f 11/5/2 12/5/2 13/5/2
f 13/5/2 12/5/2 14/5/2
f 13/4/2 14/4/2 16/4/2
f 16/4/2 14/4/2 17/4/2
f 15/4/2 16/4/2 18/4/2
f 16/1/2 17/1/2 19/1/2
f 18/4/2 16/4/2 19/4/2
f 19/1/2 17/1/2 20/1/2
f 23/4/3 22/4/3 21/4/3
f 24/4/3 22/4/3 23/4/3
f 28/5/3 26/5/3 25/5/3
f 29/5/3 26/5/3 28/5/3
f 30/5/3 26/5/3 29/5/3
f 31/3/3 29/3/3 28/3/3
f 31/2/3 30/2/3 29/2/3
f 32/2/3 30/2/3 31/2/3
f 33/2/3 30/2/3 32/2/3
f 34/2/3 30/2/3 33/2/3
f 35/3/3 32/3/3 31/3/3
f 36/2/3 33/2/3 32/2/3
f 36/3/3 32/3/3 35/3/3
f 37/3/3 34/3/3 33/3/3
f 37/2/3 33/2/3 36/2/3
f 38/3/3 34/3/3 37/3/3
f 39/2/3 30/2/3 34/2/3
f 39/3/3 34/3/3 38/3/3
f 40/2/3 30/2/3 39/2/3
f 41/3/3 35/3/3 31/3/3
f 42/3/3 35/3/3 41/3/3
f 43/3/3 35/3/3 42/3/3
f 44/2/3 36/2/3 35/2/3
f 44/3/3 35/3/3 43/3/3
f 45/3/3 38/3/3 37/3/3
f 45/2/3 36/2/3 44/2/3
f 45/3/3 37/3/3 36/3/3
f 46/3/3 38/3/3 45/3/3
f 47/2/3 39/2/3 38/2/3
f 47/3/3 38/3/3 46/3/3
f 48/3/3 40/3/3 39/3/3
f 48/2/3 39/2/3 47/2/3
f 49/3/3 41/3/3 31/3/3
f 50/2/3 42/2/3 41/2/3
f 50/3/3 41/3/3 49/3/3
f 51/3/3 43/3/3 42/3/3
f 51/2/3 42/2/3 50/2/3
f 52/2/3 44/2/3 43/2/3
f 52/3/3 43/3/3 51/3/3
f 53/3/3 46/3/3 45/3/3
f 53/2/3 44/2/3 52/2/3
f 53/3/3 45/3/3 44/3/3
f 54/2/3 47/2/3 46/2/3
f 54/3/3 46/3/3 53/3/3
f 55/3/3 48/3/3 47/3/3
f 55/2/3 47/2/3 54/2/3
f 56/3/3 49/3/3 31/3/3
f 57/2/3 50/2/3 49/2/3
f 57/3/3 49/3/3 56/3/3
f 58/3/3 51/3/3 50/3/3
f 58/2/3 50/2/3 57/2/3
f 58/3/3 52/3/3 51/3/3
f 58/3/3 55/3/3 54/3/3
f 58/3/3 54/3/3 53/3/3
f 58/3/3 53/3/3 52/3/3
f 59/2/3 57/2/3 56/2/3
f 59/3/3 56/3/3 31/3/3
f 60/3/3 58/3/3 57/3/3
f 60/2/3 57/2/3 59/2/3
f 61/3/3 55/3/3 58/3/3
f 61/3/3 58/3/3 60/3/3
f 61/3/3 60/3/3 59/3/3
f 62/3/3 48/3/3 55/3/3
f 62/3/3 55/3/3 61/3/3
f 63/3/3 61/3/3 59/3/3
f 64/2/3 62/2/3 61/2/3
f 64/3/3 61/3/3 63/3/3
f 65/3/3 48/3/3 62/3/3
f 65/2/3 62/2/3 64/2/3
f 66/3/3 63/3/3 59/3/3
f 67/2/3 64/2/3 63/2/3
f 67/3/3 63/3/3 66/3/3
f 68/3/3 65/3/3 64/3/3
f 68/2/3 64/2/3 67/2/3
f 69/3/3 66/3/3 59/3/3
f 70/3/3 66/3/3 69/3/3
f 71/2/3 67/2/3 66/2/3
f 71/3/3 66/3/3 70/3/3
f 72/3/3 68/3/3 67/3/3
f 72/2/3 67/2/3 71/2/3
f 73/3/3 69/3/3 59/3/3
f 74/2/3 70/2/3 69/2/3
f 74/3/3 69/3/3 73/3/3
f 75/3/3 71/3/3 70/3/3
f 75/2/3 70/2/3 74/2/3
f 75/3/3 72/3/3 71/3/3
f 76/3/3 40/3/3 48/3/3
f 76/3/3 72/3/3 75/3/3
f 76/3/3 65/3/3 68/3/3
f 76/3/3 68/3/3 72/3/3
f 76/3/3 48/3/3 65/3/3
f 77/2/3 30/2/3 40/2/3
f 77/3/3 40/3/3 76/3/3
f 78/3/3 59/3/3 31/3/3
f 78/3/3 73/3/3 59/3/3
f 79/2/3 74/2/3 73/2/3
f 79/3/3 73/3/3 78/3/3
f 80/3/3 75/3/3 74/3/3
f 80/2/3 74/2/3 79/2/3
f 80/3/3 76/3/3 75/3/3
f 81/3/3 76/3/3 80/3/3
f 82/2/3 77/2/3 76/2/3
f 82/3/3 76/3/3 81/3/3
f 83/2/3 30/2/3 77/2/3
f 83/2/3 77/2/3 82/2/3
f 84/2/3 79/2/3 78/2/3
f 84/3/3 78/3/3 31/3/3
f 85/3/3 81/3/3 80/3/3
f 85/2/3 79/2/3 84/2/3
f 85/3/3 80/3/3 79/3/3
f 86/3/3 81/3/3 85/3/3
f 87/2/3 82/2/3 81/2/3
f 87/3/3 81/3/3 86/3/3
f 88/3/3 83/3/3 82/3/3
f 88/2/3 82/2/3 87/2/3
f 89/3/3 86/3/3 85/3/3
f 89/3/3 85/3/3 84/3/3
f 90/3/3 86/3/3 89/3/3
f 91/2/3 87/2/3 86/2/3
f 91/3/3 86/3/3 90/3/3
f 92/3/3 88/3/3 87/3/3
f 92/2/3 87/2/3 91/2/3
f 93/3/3 89/3/3 84/3/3
f 94/2/3 90/2/3 89/2/3
f 94/3/3 89/3/3 93/3/3
f 95/3/3 91/3/3 90/3/3
f 95/2/3 90/2/3 94/2/3
f 95/3/3 92/3/3 91/3/3
f 96/3/3 93/3/3 84/3/3
f 97/2/3 94/2/3 93/2/3
f 97/3/3 93/3/3 96/3/3
f 98/3/3 95/3/3 94/3/3
f 98/2/3 94/2/3 97/2/3
f 99/3/3 96/3/3 84/3/3
f 99/2/3 97/2/3 96/2/3
f 100/3/3 98/3/3 97/3/3
f 100/2/3 97/2/3 99/2/3
f 101/5/3 28/5/3 25/5/3
f 101/3/3 31/3/3 28/3/3
f 101/3/3 100/3/3 99/3/3
f 101/3/3 99/3/3 84/3/3
f 101/3/3 84/3/3 31/3/3
f 102/3/3 98/3/3 100/3/3
f 102/3/3 100/3/3 101/3/3
f 102/3/3 88/3/3 92/3/3
f 102/3/3 92/3/3 95/3/3
f 102/3/3 83/3/3 88/3/3
f 102/3/3 95/3/3 98/3/3
f 102/2/3 30/2/3 83/2/3
f 103/5/3 26/5/3 30/5/3
f 103/2/3 30/2/3 102/2/3
f 104/5/3 101/5/3 25/5/3
f 104/5/3 102/5/3 101/5/3
f 104/5/3 103/5/3 102/5/3
f 105/4/3 27/4/3 26/4/3
f 105/5/3 103/5/3 104/5/3
f 105/5/3 26/5/3 103/5/3
f 106/4/3 27/4/3 105/4/3
f 107/5/4 108/5/4 111/5/4
f 111/5/4 108/5/4 112/5/4
f 112/5/4 108/5/4 113/5/4
f 111/3/4 112/3/4 114/3/4
f 112/2/4 113/2/4 114/2/4
f 114/2/4 113/2/4 115/2/4
f 115/2/4 113/2/4 116/2/4
f 116/2/4 113/2/4 117/2/4
f 114/3/4 115/3/4 118/3/4
f 115/2/4 116/2/4 119/2/4
f 118/3/4 115/3/4 119/3/4
f 116/3/4 117/3/4 120/3/4
f 119/2/4 116/2/4 120/2/4
f 120/3/4 117/3/4 121/3/4
f 117/2/4 113/2/4 122/2/4
f 121/3/4 117/3/4 122/3/4
f 122/2/4 113/2/4 123/2/4
f 114/3/4 118/3/4 124/3/4
f 124/3/4 118/3/4 125/3/4
f 125/3/4 118/3/4 126/3/4
f 118/2/4 119/2/4 127/2/4
f 126/3/4 118/3/4 127/3/4
f 120/3/4 121/3/4 128/3/4
f 127/2/4 119/2/4 128/2/4
f 119/3/4 120/3/4 128/3/4
f 128/3/4 121/3/4 129/3/4
f 121/2/4 122/2/4 130/2/4
f 129/3/4 121/3/4 130/3/4
f 122/3/4 123/3/4 131/3/4
f 130/2/4 122/2/4 131/2/4
f 114/3/4 124/3/4 132/3/4
f 124/2/4 125/2/4 133/2/4
f 132/3/4 124/3/4 133/3/4
f 125/3/4 126/3/4 134/3/4
f 133/2/4 125/2/4 134/2/4
f 126/2/4 127/2/4 135/2/4
f 134/3/4 126/3/4 135/3/4
f 128/3/4 129/3/4 136/3/4
f 135/2/4 127/2/4 136/2/4
f 127/3/4 128/3/4 136/3/4
f 129/2/4 130/2/4 137/2/4
f 136/3/4 129/3/4 137/3/4
f 130/3/4 131/3/4 138/3/4
f 137/2/4 130/2/4 138/2/4
f 114/3/4 132/3/4 139/3/4
f 132/2/4 133/2/4 140/2/4
f 139/3/4 132/3/4 140/3/4
f 133/3/4 134/3/4 141/3/4
f 140/2/4 133/2/4 141/2/4
f 134/3/4 135/3/4 141/3/4
f 137/3/4 138/3/4 141/3/4
f 136/3/4 137/3/4 141/3/4
f 135/3/4 136/3/4 141/3/4
f 139/2/4 140/2/4 142/2/4
f 114/3/4 139/3/4 142/3/4
f 140/3/4 141/3/4 143/3/4
f 142/2/4 140/2/4 143/2/4
f 141/3/4 138/3/4 144/3/4
f 143/3/4 141/3/4 144/3/4
f 142/3/4 143/3/4 144/3/4
f 138/3/4 131/3/4 145/3/4
f 144/3/4 138/3/4 145/3/4
f 142/3/4 144/3/4 146/3/4
f 144/2/4 145/2/4 147/2/4
f 146/3/4 144/3/4 147/3/4
f 145/3/4 131/3/4 148/3/4
f 147/2/4 145/2/4 148/2/4
f 142/3/4 146/3/4 149/3/4
f 146/2/4 147/2/4 150/2/4
f 149/3/4 146/3/4 150/3/4
f 147/3/4 148/3/4 151/3/4
f 150/2/4 147/2/4 151/2/4
f 142/3/4 149/3/4 152/3/4
f 152/3/4 149/3/4 153/3/4
f 149/2/4 150/2/4 154/2/4
f 153/3/4 149/3/4 154/3/4
f 150/3/4 151/3/4 155/3/4
f 154/2/4 150/2/4 155/2/4
f 142/3/4 152/3/4 156/3/4
f 152/2/4 153/2/4 157/2/4
f 156/3/4 152/3/4 157/3/4
f 153/3/4 154/3/4 158/3/4
f 157/2/4 153/2/4 158/2/4
f 154/3/4 155/3/4 158/3/4
f 131/3/4 123/3/4 159/3/4
f 158/3/4 155/3/4 159/3/4
f 151/3/4 148/3/4 159/3/4
f 155/3/4 151/3/4 159/3/4
f 148/3/4 131/3/4 159/3/4
f 123/2/4 113/2/4 160/2/4
f 159/3/4 123/3/4 160/3/4
f 114/3/4 142/3/4 161/3/4
f 142/3/4 156/3/4 161/3/4
f 156/2/4 157/2/4 162/2/4
f 161/3/4 156/3/4 162/3/4
f 157/3/4 158/3/4 163/3/4
f 162/2/4 157/2/4 163/2/4
f 158/3/4 159/3/4 163/3/4
f 163/3/4 159/3/4 164/3/4
f 159/2/4 160/2/4 165/2/4
f 164/3/4 159/3/4 165/3/4
f 160/2/4 113/2/4 166/2/4
f 165/2/4 160/2/4 166/2/4
f 161/2/4 162/2/4 167/2/4
f 114/3/4 161/3/4 167/3/4
f 163/3/4 164/3/4 168/3/4
f 167/2/4 162/2/4 168/2/4
f 162/3/4 163/3/4 168/3/4
f 168/3/4 164/3/4 169/3/4
f 164/2/4 165/2/4 170/2/4
f 169/3/4 164/3/4 170/3/4
f 165/3/4 166/3/4 171/3/4
f 170/2/4 165/2/4 171/2/4
f 168/3/4 169/3/4 172/3/4
f 167/3/4 168/3/4 172/3/4
f 172/3/4 169/3/4 173/3/4
f 169/2/4 170/2/4 174/2/4
f 173/3/4 169/3/4 174/3/4
f 170/3/4 171/3/4 175/3/4
f 174/2/4 170/2/4 175/2/4
f 167/3/4 172/3/4 176/3/4
f 172/2/4 173/2/4 177/2/4
f 176/3/4 172/3/4 177/3/4
f 173/3/4 174/3/4 178/3/4
f 177/2/4 173/2/4 178/2/4
f 174/3/4 175/3/4 178/3/4
f 167/3/4 176/3/4 179/3/4
f 176/2/4 177/2/4 180/2/4
f 179/3/4 176/3/4 180/3/4
f 177/3/4 178/3/4 181/3/4
f 180/2/4 177/2/4 181/2/4
f 167/3/4 179/3/4 182/3/4
f 179/2/4 180/2/4 182/2/4
f 180/3/4 181/3/4 183/3/4
f 182/2/4 180/2/4 183/2/4
f 107/5/4 111/5/4 184/5/4
f 111/3/4 114/3/4 184/3/4
f 182/3/4 183/3/4 184/3/4
f 167/3/4 182/3/4 184/3/4
f 114/3/4 167/3/4 184/3/4
f 183/3/4 181/3/4 185/3/4
f 184/3/4 183/3/4 185/3/4
f 175/3/4 171/3/4 185/3/4
f 178/3/4 175/3/4 185/3/4
f 171/3/4 166/3/4 185/3/4
f 181/3/4 178/3/4 185/3/4
f 166/2/4 113/2/4 185/2/4
f 113/5/4 108/5/4 186/5/4
f 185/2/4 113/2/4 186/2/4
f 107/5/4 184/5/4 187/5/4
f 184/5/4 185/5/4 187/5/4
f 185/5/4 186/5/4 187/5/4
f 108/4/4 109/4/4 188/4/4
f 187/5/4 186/5/4 188/5/4
f 186/5/4 108/5/4 188/5/4
f 109/1/4 110/1/4 189/1/4
f 188/4/4 109/4/4 189/4/4
f 189/1/4 110/1/4 190/1/4
f 193/5/5 192/5/5 191/5/5
f 194/5/5 192/5/5 193/5/5
f 197/4/5 196/4/5 195/4/5
f 198/4/5 196/4/5 197/4/5
f 199/4/6 200/4/6 201/4/6
f 201/4/6 200/4/6 202/4/6
f 201/1/6 202/1/6 203/1/6
f 203/1/6 202/1/6 204/1/6
