# MagicaVoxel @ Ephtracy

# material
mtllib tomate.mtl
usemtl palette

# normals
vn -1 0 0
vn 1 0 0
vn 0 0 1
vn 0 0 -1
vn 0 -1 0
vn 0 1 0

# texcoords
vt 0.130859 0.5
vt 0.138672 0.5
vt 0.173828 0.5
vt 0.287109 0.5

# verts
v -4 0 3
v -4 0 -3
v -4 1 3
v -4 1 -3
v -3 0 4
v -3 0 3
v -3 0 -3
v -3 0 -4
v -3 1 4
v -3 1 3
v -3 1 -3
v -3 1 -4
v 3 0 4
v 3 0 3
v 3 0 -3
v 3 0 -4
v 3 1 4
v 3 1 3
v 3 1 -3
v 3 1 -4
v 4 0 3
v 4 0 -3
v 4 1 3
v 4 1 -3
v -3 0 4
v -3 1 4
v 3 0 4
v 3 1 4
v -4 0 3
v -4 1 3
v -3 0 3
v -3 1 3
v 3 0 3
v 3 1 3
v 4 0 3
v 4 1 3
v -4 0 -3
v -4 1 -3
v -3 0 -3
v -3 1 -3
v 3 0 -3
v 3 1 -3
v 4 0 -3
v 4 1 -3
v -3 0 -4
v -3 1 -4
v 3 0 -4
v 3 1 -4
v -3 0 4
v 3 0 4
v -4 0 3
v -3 0 3
v -2 0 3
v 0 0 3
v 2 0 3
v 3 0 3
v 4 0 3
v -3 0 2
v -2 0 2
v -1 0 2
v 0 0 2
v 1 0 2
v 2 0 2
v 3 0 2
v -3 0 1
v -2 0 1
v -1 0 1
v 1 0 1
v 2 0 1
v 3 0 1
v -2 0 -0
v -1 0 -0
v 1 0 -0
v 2 0 -0
v -3 0 -1
v -2 0 -1
v 2 0 -1
v 3 0 -1
v -3 0 -2
v -2 0 -2
v -1 0 -2
v 0 0 -2
v 1 0 -2
v 2 0 -2
v 3 0 -2
v -4 0 -3
v -3 0 -3
v -2 0 -3
v 0 0 -3
v 1 0 -3
v 2 0 -3
v 3 0 -3
v 4 0 -3
v -3 0 -4
v 3 0 -4
v -3 1 4
v 3 1 4
v -4 1 3
v -3 1 3
v -2 1 3
v 0 1 3
v 2 1 3
v 3 1 3
v 4 1 3
v -3 1 2
v -2 1 2
v -1 1 2
v 0 1 2
v 1 1 2
v 2 1 2
v 3 1 2
v -3 1 1
v -2 1 1
v -1 1 1
v 1 1 1
v 2 1 1
v 3 1 1
v -2 1 -0
v -1 1 -0
v 1 1 -0
v 2 1 -0
v -3 1 -1
v -2 1 -1
v 2 1 -1
v 3 1 -1
v -3 1 -2
v -2 1 -2
v -1 1 -2
v 0 1 -2
v 1 1 -2
v 2 1 -2
v 3 1 -2
v -4 1 -3
v -3 1 -3
v -2 1 -3
v 0 1 -3
v 1 1 -3
v 2 1 -3
v 3 1 -3
v 4 1 -3
v -3 1 -4
v 3 1 -4

# faces
f 3/3/1 2/3/1 1/3/1
f 4/3/1 2/3/1 3/3/1
f 9/3/1 6/3/1 5/3/1
f 10/3/1 6/3/1 9/3/1
f 11/3/1 8/3/1 7/3/1
f 12/3/1 8/3/1 11/3/1
f 13/3/2 14/3/2 17/3/2
f 17/3/2 14/3/2 18/3/2
f 15/3/2 16/3/2 19/3/2
f 19/3/2 16/3/2 20/3/2
f 21/3/2 22/3/2 23/3/2
f 23/3/2 22/3/2 24/3/2
f 27/3/3 26/3/3 25/3/3
f 28/3/3 26/3/3 27/3/3
f 31/3/3 30/3/3 29/3/3
f 32/3/3 30/3/3 31/3/3
f 35/3/3 34/3/3 33/3/3
f 36/3/3 34/3/3 35/3/3
f 37/3/4 38/3/4 39/3/4
f 39/3/4 38/3/4 40/3/4
f 41/3/4 42/3/4 43/3/4
f 43/3/4 42/3/4 44/3/4
f 45/3/4 46/3/4 47/3/4
f 47/3/4 46/3/4 48/3/4
f 52/3/5 50/3/5 49/3/5
f 53/3/5 50/3/5 52/3/5
f 54/3/5 50/3/5 53/3/5
f 55/3/5 50/3/5 54/3/5
f 56/3/5 50/3/5 55/3/5
f 58/3/5 52/3/5 51/3/5
f 58/3/5 53/3/5 52/3/5
f 59/4/5 54/4/5 53/4/5
f 59/3/5 53/3/5 58/3/5
f 60/4/5 54/4/5 59/4/5
f 61/2/5 55/2/5 54/2/5
f 61/4/5 54/4/5 60/4/5
f 62/2/5 55/2/5 61/2/5
f 63/3/5 57/3/5 56/3/5
f 63/2/5 55/2/5 62/2/5
f 63/3/5 56/3/5 55/3/5
f 64/3/5 57/3/5 63/3/5
f 65/3/5 58/3/5 51/3/5
f 65/1/5 60/1/5 59/1/5
f 65/1/5 59/1/5 58/1/5
f 66/1/5 60/1/5 65/1/5
f 67/4/5 62/4/5 61/4/5
f 67/1/5 60/1/5 66/1/5
f 67/4/5 61/4/5 60/4/5
f 68/1/5 64/1/5 63/1/5
f 68/4/5 62/4/5 67/4/5
f 68/1/5 63/1/5 62/1/5
f 69/1/5 64/1/5 68/1/5
f 70/3/5 57/3/5 64/3/5
f 70/1/5 64/1/5 69/1/5
f 71/4/5 66/4/5 65/4/5
f 71/1/5 69/1/5 68/1/5
f 71/1/5 67/1/5 66/1/5
f 71/1/5 68/1/5 67/1/5
f 72/1/5 69/1/5 71/1/5
f 73/1/5 69/1/5 72/1/5
f 74/4/5 70/4/5 69/4/5
f 74/1/5 69/1/5 73/1/5
f 75/3/5 65/3/5 51/3/5
f 75/4/5 71/4/5 65/4/5
f 75/4/5 72/4/5 71/4/5
f 76/4/5 72/4/5 75/4/5
f 77/4/5 70/4/5 74/4/5
f 77/4/5 74/4/5 73/4/5
f 78/3/5 57/3/5 70/3/5
f 78/4/5 70/4/5 77/4/5
f 79/2/5 76/2/5 75/2/5
f 79/3/5 75/3/5 51/3/5
f 80/4/5 72/4/5 76/4/5
f 80/2/5 76/2/5 79/2/5
f 81/1/5 73/1/5 72/1/5
f 81/4/5 72/4/5 80/4/5
f 82/1/5 73/1/5 81/1/5
f 83/4/5 77/4/5 73/4/5
f 83/1/5 73/1/5 82/1/5
f 84/2/5 78/2/5 77/2/5
f 84/4/5 77/4/5 83/4/5
f 85/3/5 57/3/5 78/3/5
f 85/2/5 78/2/5 84/2/5
f 86/3/5 79/3/5 51/3/5
f 86/3/5 80/3/5 79/3/5
f 87/3/5 80/3/5 86/3/5
f 88/2/5 82/2/5 81/2/5
f 88/3/5 80/3/5 87/3/5
f 88/2/5 81/2/5 80/2/5
f 89/1/5 83/1/5 82/1/5
f 89/2/5 82/2/5 88/2/5
f 90/2/5 84/2/5 83/2/5
f 90/1/5 83/1/5 89/1/5
f 91/3/5 85/3/5 84/3/5
f 91/2/5 84/2/5 90/2/5
f 92/3/5 57/3/5 85/3/5
f 92/3/5 85/3/5 91/3/5
f 93/3/5 57/3/5 92/3/5
f 94/3/5 91/3/5 90/3/5
f 94/3/5 92/3/5 91/3/5
f 94/3/5 90/3/5 89/3/5
f 94/3/5 88/3/5 87/3/5
f 94/3/5 89/3/5 88/3/5
f 95/3/5 92/3/5 94/3/5
f 96/3/6 97/3/6 99/3/6
f 99/3/6 97/3/6 100/3/6
f 100/3/6 97/3/6 101/3/6
f 101/3/6 97/3/6 102/3/6
f 102/3/6 97/3/6 103/3/6
f 98/3/6 99/3/6 105/3/6
f 99/3/6 100/3/6 105/3/6
f 100/4/6 101/4/6 106/4/6
f 105/3/6 100/3/6 106/3/6
f 106/4/6 101/4/6 107/4/6
f 101/2/6 102/2/6 108/2/6
f 107/4/6 101/4/6 108/4/6
f 108/2/6 102/2/6 109/2/6
f 103/3/6 104/3/6 110/3/6
f 109/2/6 102/2/6 110/2/6
f 102/3/6 103/3/6 110/3/6
f 110/3/6 104/3/6 111/3/6
f 98/3/6 105/3/6 112/3/6
f 106/1/6 107/1/6 112/1/6
f 105/1/6 106/1/6 112/1/6
f 112/1/6 107/1/6 113/1/6
f 108/4/6 109/4/6 114/4/6
f 113/1/6 107/1/6 114/1/6
f 107/4/6 108/4/6 114/4/6
f 110/1/6 111/1/6 115/1/6
f 114/4/6 109/4/6 115/4/6
f 109/1/6 110/1/6 115/1/6
f 115/1/6 111/1/6 116/1/6
f 111/3/6 104/3/6 117/3/6
f 116/1/6 111/1/6 117/1/6
f 112/4/6 113/4/6 118/4/6
f 115/1/6 116/1/6 118/1/6
f 113/1/6 114/1/6 118/1/6
f 114/1/6 115/1/6 118/1/6
f 118/1/6 116/1/6 119/1/6
f 119/1/6 116/1/6 120/1/6
f 116/4/6 117/4/6 121/4/6
f 120/1/6 116/1/6 121/1/6
f 98/3/6 112/3/6 122/3/6
f 112/4/6 118/4/6 122/4/6
f 118/4/6 119/4/6 122/4/6
f 122/4/6 119/4/6 123/4/6
f 121/4/6 117/4/6 124/4/6
f 120/4/6 121/4/6 124/4/6
f 117/3/6 104/3/6 125/3/6
f 124/4/6 117/4/6 125/4/6
f 122/2/6 123/2/6 126/2/6
f 98/3/6 122/3/6 126/3/6
f 123/4/6 119/4/6 127/4/6
f 126/2/6 123/2/6 127/2/6
f 119/1/6 120/1/6 128/1/6
f 127/4/6 119/4/6 128/4/6
f 128/1/6 120/1/6 129/1/6
f 120/4/6 124/4/6 130/4/6
f 129/1/6 120/1/6 130/1/6
f 124/2/6 125/2/6 131/2/6
f 130/4/6 124/4/6 131/4/6
f 125/3/6 104/3/6 132/3/6
f 131/2/6 125/2/6 132/2/6
f 98/3/6 126/3/6 133/3/6
f 126/3/6 127/3/6 133/3/6
f 133/3/6 127/3/6 134/3/6
f 128/2/6 129/2/6 135/2/6
f 134/3/6 127/3/6 135/3/6
f 127/2/6 128/2/6 135/2/6
f 129/1/6 130/1/6 136/1/6
f 135/2/6 129/2/6 136/2/6
f 130/2/6 131/2/6 137/2/6
f 136/1/6 130/1/6 137/1/6
f 131/3/6 132/3/6 138/3/6
f 137/2/6 131/2/6 138/2/6
f 132/3/6 104/3/6 139/3/6
f 138/3/6 132/3/6 139/3/6
f 139/3/6 104/3/6 140/3/6
f 137/3/6 138/3/6 141/3/6
f 138/3/6 139/3/6 141/3/6
f 136/3/6 137/3/6 141/3/6
f 134/3/6 135/3/6 141/3/6
f 135/3/6 136/3/6 141/3/6
f 141/3/6 139/3/6 142/3/6
