# MagicaVoxel @ Ephtracy

# material
mtllib geek.mtl
usemtl palette

# normals
vn -1 0 0
vn 1 0 0
vn 0 0 1
vn 0 0 -1
vn 0 -1 0
vn 0 1 0

# texcoords
vt 0.208984 0.5
vt 0.345703 0.5
vt 0.705078 0.5
vt 0.744141 0.5
vt 0.763672 0.5
vt 0.771484 0.5
vt 0.916016 0.5
vt 0.958984 0.5
vt 0.986328 0.5
vt 0.990234 0.5
vt 0.994141 0.5

# verts
v -3 4 -0
v -3 4 -1
v -3 7 -0
v -3 7 -1
v -3 9 -0
v -3 9 -1
v -3 10 -0
v -3 10 -1
v -3 11 -0
v -3 11 -1
v -2 0 1
v -2 0 -1
v -2 1 1
v -2 1 -0
v -2 1 -1
v -2 3 1
v -2 3 -0
v -2 3 -1
v -2 3 -2
v -2 4 1
v -2 4 -0
v -2 4 -1
v -2 5 2
v -2 5 1
v -2 5 -0
v -2 5 -1
v -2 5 -2
v -2 7 -0
v -2 7 -1
v -2 8 2
v -2 8 1
v -2 9 1
v -2 9 -0
v -2 9 -1
v -2 9 -2
v -2 10 -0
v -2 10 -1
v -2 10 -2
v -2 10 -3
v -2 11 2
v -2 11 1
v -2 11 -0
v -2 11 -1
v -2 11 -2
v -2 12 2
v -2 12 1
v -2 12 -0
v -2 12 -2
v -2 12 -3
v -2 13 1
v -2 13 -2
v -1 12 2
v -1 12 1
v -1 13 2
v -1 13 1
v -1 13 -1
v -1 14 1
v -1 14 -1
v 1 0 1
v 1 0 -1
v 1 1 1
v 1 1 -0
v 1 1 -1
v 1 2 -0
v 1 2 -1
v 1 3 -0
v 1 3 -1
v -1 0 1
v -1 0 -1
v -1 1 1
v -1 1 -0
v -1 1 -1
v -1 3 -0
v -1 3 -1
v -1 11 2
v -1 11 1
v -1 12 2
v -1 12 1
v 1 12 2
v 1 12 1
v 1 13 2
v 1 13 1
v 1 13 -1
v 1 14 1
v 1 14 -1
v 2 0 1
v 2 0 -1
v 2 1 1
v 2 1 -0
v 2 1 -1
v 2 2 -0
v 2 2 -1
v 2 3 1
v 2 3 -0
v 2 3 -1
v 2 3 -2
v 2 4 -0
v 2 4 -1
v 2 5 2
v 2 5 1
v 2 5 -0
v 2 5 -1
v 2 5 -2
v 2 7 -0
v 2 7 -1
v 2 8 2
v 2 8 1
v 2 9 1
v 2 9 -0
v 2 9 -1
v 2 9 -2
v 2 10 1
v 2 10 -0
v 2 10 -1
v 2 10 -2
v 2 10 -3
v 2 12 1
v 2 12 -2
v 2 12 -3
v 2 13 1
v 2 13 -2
v 3 4 -0
v 3 4 -1
v 3 7 -0
v 3 7 -1
v 3 9 -0
v 3 9 -1
v 3 10 1
v 3 10 -0
v 3 10 -1
v 3 10 -2
v 3 11 -0
v 3 11 -1
v 3 12 1
v 3 12 -2
v -2 5 2
v -2 8 2
v -2 11 2
v -2 12 2
v -1 11 2
v -1 12 2
v -1 13 2
v 1 12 2
v 1 13 2
v 2 5 2
v 2 8 2
v -2 0 1
v -2 1 1
v -2 3 1
v -2 4 1
v -2 5 1
v -2 8 1
v -2 9 1
v -2 11 1
v -2 12 1
v -2 13 1
v -1 0 1
v -1 1 1
v -1 3 1
v -1 4 1
v -1 10 1
v -1 11 1
v -1 12 1
v -1 13 1
v -1 14 1
v 0 10 1
v 0 11 1
v 1 0 1
v 1 1 1
v 1 10 1
v 1 11 1
v 1 12 1
v 1 13 1
v 1 14 1
v 2 0 1
v 2 1 1
v 2 3 1
v 2 5 1
v 2 8 1
v 2 9 1
v 2 10 1
v 2 11 1
v 2 12 1
v 2 13 1
v 3 10 1
v 3 12 1
v -3 4 -0
v -3 7 -0
v -3 9 -0
v -3 10 -0
v -3 11 -0
v -2 1 -0
v -2 3 -0
v -2 4 -0
v -2 5 -0
v -2 7 -0
v -2 9 -0
v -2 10 -0
v -2 11 -0
v -1 1 -0
v -1 3 -0
v 1 1 -0
v 1 2 -0
v 1 3 -0
v 2 1 -0
v 2 2 -0
v 2 3 -0
v 2 4 -0
v 2 5 -0
v 2 7 -0
v 2 9 -0
v 3 4 -0
v 3 7 -0
v 3 9 -0
v -3 4 -1
v -3 7 -1
v -3 9 -1
v -3 10 -1
v -3 11 -1
v -2 0 -1
v -2 1 -1
v -2 3 -1
v -2 4 -1
v -2 5 -1
v -2 7 -1
v -2 9 -1
v -2 10 -1
v -2 11 -1
v -1 0 -1
v -1 1 -1
v -1 3 -1
v -1 13 -1
v -1 14 -1
v 1 0 -1
v 1 1 -1
v 1 2 -1
v 1 3 -1
v 1 13 -1
v 1 14 -1
v 2 0 -1
v 2 1 -1
v 2 2 -1
v 2 3 -1
v 2 4 -1
v 2 5 -1
v 2 7 -1
v 2 9 -1
v 3 4 -1
v 3 7 -1
v 3 9 -1
v -2 3 -2
v -2 5 -2
v -2 9 -2
v -2 10 -2
v -2 12 -2
v -2 13 -2
v 2 3 -2
v 2 5 -2
v 2 9 -2
v 2 10 -2
v 2 12 -2
v 2 13 -2
v 3 10 -2
v 3 12 -2
v -2 10 -3
v -2 12 -3
v 2 10 -3
v 2 12 -3
v -2 0 1
v -1 0 1
v 1 0 1
v 2 0 1
v -2 0 -1
v -1 0 -1
v 1 0 -1
v 2 0 -1
v -2 3 1
v -1 3 1
v 2 3 1
v -2 3 -0
v -1 3 -0
v 1 3 -0
v 2 3 -0
v -2 3 -1
v -1 3 -1
v 1 3 -1
v 2 3 -1
v -2 3 -2
v 2 3 -2
v -3 4 -0
v -2 4 -0
v 2 4 -0
v 3 4 -0
v -3 4 -1
v -2 4 -1
v 2 4 -1
v 3 4 -1
v -2 5 2
v 2 5 2
v -2 5 1
v 2 5 1
v 2 10 1
v 3 10 1
v -3 10 -0
v -2 10 -0
v 2 10 -0
v 3 10 -0
v -3 10 -1
v -2 10 -1
v 2 10 -1
v 3 10 -1
v -2 10 -2
v 2 10 -2
v 3 10 -2
v -2 10 -3
v 2 10 -3
v -2 11 2
v -1 11 2
v -2 11 1
v -1 11 1
v -1 12 2
v 1 12 2
v -1 12 1
v 1 12 1
v -2 1 1
v -1 1 1
v 1 1 1
v 2 1 1
v -2 1 -0
v -1 1 -0
v 1 1 -0
v 2 1 -0
v -2 8 2
v 2 8 2
v -2 8 1
v 2 8 1
v -3 9 -0
v -2 9 -0
v 2 9 -0
v 3 9 -0
v -3 9 -1
v -2 9 -1
v 2 9 -1
v 3 9 -1
v -3 11 -0
v -2 11 -0
v -3 11 -1
v -2 11 -1
v -2 12 2
v -1 12 2
v -2 12 1
v -1 12 1
v 2 12 1
v 3 12 1
v -2 12 -2
v 2 12 -2
v 3 12 -2
v -2 12 -3
v 2 12 -3
v -1 13 2
v 1 13 2
v -2 13 1
v -1 13 1
v 1 13 1
v 2 13 1
v -1 13 -1
v 1 13 -1
v -2 13 -2
v 2 13 -2
v -1 14 1
v 1 14 1
v -1 14 -1
v 1 14 -1

# faces
f 3/2/1 2/2/1 1/2/1
f 4/2/1 2/2/1 3/2/1
f 5/7/1 4/7/1 3/7/1
f 6/7/1 4/7/1 5/7/1
f 9/2/1 8/2/1 7/2/1
f 10/2/1 8/2/1 9/2/1
f 13/9/1 12/9/1 11/9/1
f 14/9/1 12/9/1 13/9/1
f 15/9/1 12/9/1 14/9/1
f 17/5/1 15/5/1 14/5/1
f 18/5/1 15/5/1 17/5/1
f 20/4/1 17/4/1 16/4/1
f 21/5/1 18/5/1 17/5/1
f 21/4/1 17/4/1 20/4/1
f 21/5/1 19/5/1 18/5/1
f 22/5/1 19/5/1 21/5/1
f 24/5/1 21/5/1 20/5/1
f 25/5/1 21/5/1 24/5/1
f 26/5/1 19/5/1 22/5/1
f 27/5/1 19/5/1 26/5/1
f 28/8/1 25/8/1 24/8/1
f 28/8/1 24/8/1 23/8/1
f 29/7/1 27/7/1 26/7/1
f 30/8/1 28/8/1 23/8/1
f 31/8/1 28/8/1 30/8/1
f 32/8/1 28/8/1 31/8/1
f 33/8/1 28/8/1 32/8/1
f 34/7/1 27/7/1 29/7/1
f 35/7/1 27/7/1 34/7/1
f 36/2/1 33/2/1 32/2/1
f 36/2/1 34/2/1 33/2/1
f 36/2/1 35/2/1 34/2/1
f 37/2/1 35/2/1 36/2/1
f 38/2/1 35/2/1 37/2/1
f 41/2/1 36/2/1 32/2/1
f 42/2/1 36/2/1 41/2/1
f 43/10/1 38/10/1 37/10/1
f 43/10/1 39/10/1 38/10/1
f 44/10/1 39/10/1 43/10/1
f 45/10/1 42/10/1 41/10/1
f 45/10/1 41/10/1 40/10/1
f 46/10/1 42/10/1 45/10/1
f 47/1/1 44/1/1 43/1/1
f 47/10/1 42/10/1 46/10/1
f 47/1/1 43/1/1 42/1/1
f 48/10/1 39/10/1 44/10/1
f 48/1/1 44/1/1 47/1/1
f 49/10/1 39/10/1 48/10/1
f 50/10/1 47/10/1 46/10/1
f 50/10/1 48/10/1 47/10/1
f 51/10/1 48/10/1 50/10/1
f 54/10/1 53/10/1 52/10/1
f 55/10/1 53/10/1 54/10/1
f 57/11/1 56/11/1 55/11/1
f 58/11/1 56/11/1 57/11/1
f 61/9/1 60/9/1 59/9/1
f 62/9/1 60/9/1 61/9/1
f 63/9/1 60/9/1 62/9/1
f 64/5/1 63/5/1 62/5/1
f 65/5/1 63/5/1 64/5/1
f 66/4/1 65/4/1 64/4/1
f 67/4/1 65/4/1 66/4/1
f 68/9/2 69/9/2 70/9/2
f 70/9/2 69/9/2 71/9/2
f 71/9/2 69/9/2 72/9/2
f 71/5/2 72/5/2 73/5/2
f 73/5/2 72/5/2 74/5/2
f 75/10/2 76/10/2 77/10/2
f 77/10/2 76/10/2 78/10/2
f 79/10/2 80/10/2 81/10/2
f 81/10/2 80/10/2 82/10/2
f 82/11/2 83/11/2 84/11/2
f 84/11/2 83/11/2 85/11/2
f 86/9/2 87/9/2 88/9/2
f 88/9/2 87/9/2 89/9/2
f 89/9/2 87/9/2 90/9/2
f 89/5/2 90/5/2 91/5/2
f 91/5/2 90/5/2 92/5/2
f 91/4/2 92/4/2 94/4/2
f 94/4/2 92/4/2 95/4/2
f 94/5/2 95/5/2 97/5/2
f 95/5/2 96/5/2 97/5/2
f 93/5/2 94/5/2 97/5/2
f 97/5/2 96/5/2 98/5/2
f 93/5/2 97/5/2 100/5/2
f 100/5/2 97/5/2 101/5/2
f 98/5/2 96/5/2 102/5/2
f 102/5/2 96/5/2 103/5/2
f 100/8/2 101/8/2 104/8/2
f 99/8/2 100/8/2 104/8/2
f 102/7/2 103/7/2 105/7/2
f 99/8/2 104/8/2 106/8/2
f 106/8/2 104/8/2 107/8/2
f 107/8/2 104/8/2 108/8/2
f 108/8/2 104/8/2 109/8/2
f 105/7/2 103/7/2 110/7/2
f 110/7/2 103/7/2 111/7/2
f 108/2/2 109/2/2 112/2/2
f 109/2/2 110/2/2 112/2/2
f 110/2/2 111/2/2 112/2/2
f 112/2/2 111/2/2 113/2/2
f 113/2/2 111/2/2 114/2/2
f 114/2/2 111/2/2 115/2/2
f 115/10/2 116/10/2 118/10/2
f 118/10/2 116/10/2 119/10/2
f 117/10/2 118/10/2 120/10/2
f 120/10/2 118/10/2 121/10/2
f 122/2/2 123/2/2 124/2/2
f 124/2/2 123/2/2 125/2/2
f 124/7/2 125/7/2 126/7/2
f 126/7/2 125/7/2 127/7/2
f 129/2/2 130/2/2 132/2/2
f 128/10/2 129/10/2 132/10/2
f 130/10/2 131/10/2 133/10/2
f 132/2/2 130/2/2 133/2/2
f 128/10/2 132/10/2 134/10/2
f 132/10/2 133/10/2 134/10/2
f 133/10/2 131/10/2 135/10/2
f 134/10/2 133/10/2 135/10/2
f 140/10/3 139/10/3 138/10/3
f 141/10/3 139/10/3 140/10/3
f 143/10/3 142/10/3 141/10/3
f 144/10/3 142/10/3 143/10/3
f 145/8/3 137/8/3 136/8/3
f 146/8/3 137/8/3 145/8/3
f 157/9/3 148/9/3 147/9/3
f 158/9/3 148/9/3 157/9/3
f 159/4/3 150/4/3 149/4/3
f 160/5/3 151/5/3 150/5/3
f 160/4/3 150/4/3 159/4/3
f 161/2/3 154/2/3 153/2/3
f 162/2/3 154/2/3 161/2/3
f 163/10/3 156/10/3 155/10/3
f 164/10/3 156/10/3 163/10/3
f 166/7/3 162/7/3 161/7/3
f 166/2/3 161/2/3 153/2/3
f 167/1/3 163/1/3 162/1/3
f 167/7/3 162/7/3 166/7/3
f 170/2/3 166/2/3 153/2/3
f 170/2/3 167/2/3 166/2/3
f 171/1/3 163/1/3 167/1/3
f 171/2/3 167/2/3 170/2/3
f 172/1/3 163/1/3 171/1/3
f 173/11/3 165/11/3 164/11/3
f 174/11/3 165/11/3 173/11/3
f 175/9/3 169/9/3 168/9/3
f 176/9/3 169/9/3 175/9/3
f 177/5/3 160/5/3 159/5/3
f 178/5/3 151/5/3 160/5/3
f 178/5/3 160/5/3 177/5/3
f 179/8/3 153/8/3 152/8/3
f 180/2/3 170/2/3 153/2/3
f 180/8/3 153/8/3 179/8/3
f 181/7/3 171/7/3 170/7/3
f 181/2/3 170/2/3 180/2/3
f 182/10/3 172/10/3 171/10/3
f 182/7/3 171/7/3 181/7/3
f 182/10/3 173/10/3 172/10/3
f 183/10/3 173/10/3 182/10/3
f 184/10/3 173/10/3 183/10/3
f 185/10/3 183/10/3 182/10/3
f 185/10/3 182/10/3 181/10/3
f 186/10/3 183/10/3 185/10/3
f 194/2/3 188/2/3 187/2/3
f 195/2/3 188/2/3 194/2/3
f 196/7/3 189/7/3 188/7/3
f 196/2/3 188/2/3 195/2/3
f 197/7/3 189/7/3 196/7/3
f 198/2/3 191/2/3 190/2/3
f 199/2/3 191/2/3 198/2/3
f 200/5/3 193/5/3 192/5/3
f 201/5/3 193/5/3 200/5/3
f 205/5/3 203/5/3 202/5/3
f 206/4/3 204/4/3 203/4/3
f 206/5/3 203/5/3 205/5/3
f 207/4/3 204/4/3 206/4/3
f 212/2/3 210/2/3 209/2/3
f 212/2/3 209/2/3 208/2/3
f 213/7/3 211/7/3 210/7/3
f 213/2/3 210/2/3 212/2/3
f 214/7/3 211/7/3 213/7/3
f 215/2/4 216/2/4 223/2/4
f 223/2/4 216/2/4 224/2/4
f 216/7/4 217/7/4 225/7/4
f 224/2/4 216/2/4 225/2/4
f 225/7/4 217/7/4 226/7/4
f 218/2/4 219/2/4 227/2/4
f 227/2/4 219/2/4 228/2/4
f 220/9/4 221/9/4 229/9/4
f 221/5/4 222/5/4 230/5/4
f 229/9/4 221/9/4 230/9/4
f 230/5/4 222/5/4 231/5/4
f 232/11/4 233/11/4 238/11/4
f 238/11/4 233/11/4 239/11/4
f 234/9/4 235/9/4 240/9/4
f 235/5/4 236/5/4 241/5/4
f 240/9/4 235/9/4 241/9/4
f 236/4/4 237/4/4 242/4/4
f 241/5/4 236/5/4 242/5/4
f 242/4/4 237/4/4 243/4/4
f 245/2/4 246/2/4 248/2/4
f 244/2/4 245/2/4 248/2/4
f 246/7/4 247/7/4 249/7/4
f 248/2/4 246/2/4 249/2/4
f 249/7/4 247/7/4 250/7/4
f 251/5/4 252/5/4 257/5/4
f 252/7/4 253/7/4 258/7/4
f 257/5/4 252/5/4 258/5/4
f 253/2/4 254/2/4 259/2/4
f 258/7/4 253/7/4 259/7/4
f 259/2/4 254/2/4 260/2/4
f 255/10/4 256/10/4 261/10/4
f 261/10/4 256/10/4 262/10/4
f 260/10/4 261/10/4 263/10/4
f 263/10/4 261/10/4 264/10/4
f 265/10/4 266/10/4 267/10/4
f 267/10/4 266/10/4 268/10/4
f 273/9/5 270/9/5 269/9/5
f 274/9/5 270/9/5 273/9/5
f 275/9/5 272/9/5 271/9/5
f 276/9/5 272/9/5 275/9/5
f 280/4/5 278/4/5 277/4/5
f 281/5/5 279/5/5 278/5/5
f 281/4/5 278/4/5 280/4/5
f 282/5/5 279/5/5 281/5/5
f 283/5/5 279/5/5 282/5/5
f 285/5/5 282/5/5 281/5/5
f 286/5/5 282/5/5 285/5/5
f 288/5/5 285/5/5 284/5/5
f 288/5/5 287/5/5 286/5/5
f 288/5/5 286/5/5 285/5/5
f 289/5/5 287/5/5 288/5/5
f 294/2/5 291/2/5 290/2/5
f 295/2/5 291/2/5 294/2/5
f 296/2/5 293/2/5 292/2/5
f 297/2/5 293/2/5 296/2/5
f 300/8/5 299/8/5 298/8/5
f 301/8/5 299/8/5 300/8/5
f 306/10/5 303/10/5 302/10/5
f 307/10/5 303/10/5 306/10/5
f 308/2/5 305/2/5 304/2/5
f 309/2/5 305/2/5 308/2/5
f 310/2/5 307/2/5 306/2/5
f 311/2/5 307/2/5 310/2/5
f 313/10/5 311/10/5 310/10/5
f 314/10/5 311/10/5 313/10/5
f 315/10/5 313/10/5 312/10/5
f 316/10/5 313/10/5 315/10/5
f 319/10/5 318/10/5 317/10/5
f 320/10/5 318/10/5 319/10/5
f 323/10/5 322/10/5 321/10/5
f 324/10/5 322/10/5 323/10/5
f 325/9/6 326/9/6 329/9/6
f 329/9/6 326/9/6 330/9/6
f 327/9/6 328/9/6 331/9/6
f 331/9/6 328/9/6 332/9/6
f 333/8/6 334/8/6 335/8/6
f 335/8/6 334/8/6 336/8/6
f 337/7/6 338/7/6 341/7/6
f 341/7/6 338/7/6 342/7/6
f 339/7/6 340/7/6 343/7/6
f 343/7/6 340/7/6 344/7/6
f 345/2/6 346/2/6 347/2/6
f 347/2/6 346/2/6 348/2/6
f 349/10/6 350/10/6 351/10/6
f 351/10/6 350/10/6 352/10/6
f 353/10/6 354/10/6 356/10/6
f 356/10/6 354/10/6 357/10/6
f 355/10/6 356/10/6 358/10/6
f 358/10/6 356/10/6 359/10/6
f 360/10/6 361/10/6 363/10/6
f 363/10/6 361/10/6 364/10/6
f 362/10/6 363/10/6 366/10/6
f 364/10/6 365/10/6 367/10/6
f 362/10/6 366/10/6 368/10/6
f 366/10/6 367/10/6 368/10/6
f 367/10/6 365/10/6 369/10/6
f 368/10/6 367/10/6 369/10/6
f 370/11/6 371/11/6 372/11/6
f 372/11/6 371/11/6 373/11/6
