# MagicaVoxel @ Ephtracy

# material
mtllib joshikosei.mtl
usemtl palette

# normals
vn -1 0 0
vn 1 0 0
vn 0 0 1
vn 0 0 -1
vn 0 -1 0
vn 0 1 0

# texcoords
vt 0.146484 0.5
vt 0.181641 0.5
vt 0.310547 0.5
vt 0.345703 0.5
vt 0.369141 0.5
vt 0.376953 0.5
vt 0.384766 0.5
vt 0.419922 0.5
vt 0.697266 0.5
vt 0.705078 0.5
vt 0.771484 0.5
vt 0.951172 0.5
vt 0.958984 0.5
vt 0.990234 0.5

# verts
v -3 4 -0
v -3 4 -1
v -3 5 -0
v -3 5 -1
v -3 7 -1
v -3 7 -2
v -3 8 1
v -3 8 -0
v -3 8 -1
v -3 8 -2
v -3 9 -0
v -3 9 -1
v -3 9 -2
v -3 10 2
v -3 10 1
v -3 10 -0
v -3 10 -1
v -3 11 2
v -3 11 -0
v -3 12 2
v -3 12 -2
v -2 0 1
v -2 0 -1
v -2 1 1
v -2 1 -0
v -2 2 -0
v -2 2 -1
v -2 4 1
v -2 4 -0
v -2 4 -1
v -2 4 -2
v -2 5 1
v -2 5 -0
v -2 5 -1
v -2 5 -2
v -2 7 -1
v -2 7 -2
v -2 8 1
v -2 8 -0
v -2 8 -2
v -2 8 -3
v -2 9 -2
v -2 9 -3
v -2 12 2
v -2 12 -2
v -2 12 -3
v -2 13 2
v -2 13 -2
v -1 7 -2
v -1 7 -3
v -1 8 -2
v -1 8 -3
v -1 11 -3
v -1 11 -4
v -1 12 -2
v -1 12 -3
v -1 12 -4
v -1 13 1
v -1 13 -2
v -1 13 -3
v -1 14 1
v -1 14 -2
v 0 11 2
v 0 11 1
v 0 12 2
v 0 12 1
v 1 0 1
v 1 0 -1
v 1 1 1
v 1 1 -0
v 1 2 -0
v 1 2 -1
v 1 4 -0
v 1 4 -1
v 1 5 -0
v 1 5 -1
v 2 10 2
v 2 10 1
v 2 11 2
v 2 11 1
v -2 10 2
v -2 10 1
v -2 11 2
v -2 11 1
v -1 0 1
v -1 0 -1
v -1 1 1
v -1 1 -0
v -1 2 -0
v -1 2 -1
v -1 4 -0
v -1 4 -1
v -1 5 -0
v -1 5 -1
v -1 11 2
v -1 11 1
v -1 12 2
v -1 12 1
v 1 7 -2
v 1 7 -3
v 1 8 -2
v 1 8 -3
v 1 11 -3
v 1 11 -4
v 1 12 -2
v 1 12 -3
v 1 12 -4
v 1 13 1
v 1 13 -2
v 1 13 -3
v 1 14 1
v 1 14 -2
v 2 0 1
v 2 0 -1
v 2 1 1
v 2 1 -0
v 2 2 -0
v 2 2 -1
v 2 4 1
v 2 4 -0
v 2 4 -1
v 2 4 -2
v 2 5 1
v 2 5 -0
v 2 5 -1
v 2 5 -2
v 2 7 -1
v 2 7 -2
v 2 8 1
v 2 8 -0
v 2 8 -2
v 2 8 -3
v 2 9 -2
v 2 9 -3
v 2 10 -2
v 2 10 -3
v 2 12 2
v 2 12 -2
v 2 12 -3
v 2 13 2
v 2 13 -2
v 3 4 -0
v 3 4 -1
v 3 5 -0
v 3 5 -1
v 3 7 -1
v 3 7 -2
v 3 8 1
v 3 8 -0
v 3 8 -1
v 3 8 -2
v 3 9 1
v 3 9 -0
v 3 9 -1
v 3 10 2
v 3 10 1
v 3 10 -0
v 3 10 -1
v 3 10 -2
v 3 11 2
v 3 11 1
v 3 11 -1
v 3 12 2
v 3 12 -2
v -3 10 2
v -3 11 2
v -3 12 2
v -2 10 2
v -2 11 2
v -2 12 2
v -2 13 2
v -1 11 2
v -1 12 2
v 0 11 2
v 0 12 2
v 2 10 2
v 2 11 2
v 2 12 2
v 2 13 2
v 3 10 2
v 3 11 2
v 3 12 2
v -3 8 1
v -3 10 1
v -2 0 1
v -2 1 1
v -2 4 1
v -2 5 1
v -2 8 1
v -2 9 1
v -2 10 1
v -2 11 1
v -1 0 1
v -1 1 1
v -1 5 1
v -1 8 1
v -1 9 1
v -1 10 1
v -1 11 1
v -1 12 1
v -1 13 1
v -1 14 1
v 0 7 1
v 0 8 1
v 0 9 1
v 0 10 1
v 0 11 1
v 0 12 1
v 1 0 1
v 1 1 1
v 1 5 1
v 1 7 1
v 1 8 1
v 1 9 1
v 1 10 1
v 1 11 1
v 1 13 1
v 1 14 1
v 2 0 1
v 2 1 1
v 2 4 1
v 2 5 1
v 2 8 1
v 2 9 1
v 2 10 1
v 2 11 1
v 3 8 1
v 3 9 1
v 3 10 1
v -3 4 -0
v -3 5 -0
v -3 8 -0
v -2 1 -0
v -2 2 -0
v -2 4 -0
v -2 5 -0
v -2 8 -0
v -1 1 -0
v -1 2 -0
v -1 4 -0
v 1 1 -0
v 1 2 -0
v 1 4 -0
v 2 1 -0
v 2 2 -0
v 2 4 -0
v 2 5 -0
v 2 8 -0
v 3 4 -0
v 3 5 -0
v 3 8 -0
v -1 4 -1
v -1 5 -1
v 1 4 -1
v 1 5 -1
v -1 4 -0
v -1 5 -0
v 1 4 -0
v 1 5 -0
v -3 4 -1
v -3 5 -1
v -3 7 -1
v -2 0 -1
v -2 2 -1
v -2 4 -1
v -2 5 -1
v -2 7 -1
v -1 0 -1
v -1 2 -1
v -1 4 -1
v 1 0 -1
v 1 2 -1
v 1 4 -1
v 2 0 -1
v 2 2 -1
v 2 4 -1
v 2 5 -1
v 2 7 -1
v 3 4 -1
v 3 5 -1
v 3 7 -1
v -3 7 -2
v -3 8 -2
v -3 9 -2
v -3 12 -2
v -2 4 -2
v -2 5 -2
v -2 7 -2
v -2 8 -2
v -2 9 -2
v -2 12 -2
v -2 13 -2
v -1 7 -2
v -1 8 -2
v -1 12 -2
v -1 13 -2
v -1 14 -2
v 0 7 -2
v 1 7 -2
v 1 8 -2
v 1 12 -2
v 1 13 -2
v 1 14 -2
v 2 4 -2
v 2 5 -2
v 2 7 -2
v 2 8 -2
v 2 9 -2
v 2 10 -2
v 2 12 -2
v 2 13 -2
v 3 7 -2
v 3 8 -2
v 3 10 -2
v 3 12 -2
v -2 8 -3
v -2 9 -3
v -2 12 -3
v -1 7 -3
v -1 8 -3
v -1 9 -3
v -1 11 -3
v -1 12 -3
v -1 13 -3
v 0 7 -3
v 0 8 -3
v 0 9 -3
v 0 10 -3
v 0 11 -3
v 1 7 -3
v 1 8 -3
v 1 9 -3
v 1 10 -3
v 1 11 -3
v 1 12 -3
v 1 13 -3
v 2 8 -3
v 2 9 -3
v 2 10 -3
v 2 12 -3
v -1 11 -4
v -1 12 -4
v 1 11 -4
v 1 12 -4
v -2 0 1
v -1 0 1
v 1 0 1
v 2 0 1
v -2 0 -1
v -1 0 -1
v 1 0 -1
v 2 0 -1
v -2 4 1
v 2 4 1
v -3 4 -0
v -2 4 -0
v -1 4 -0
v 1 4 -0
v 2 4 -0
v 3 4 -0
v -3 4 -1
v -2 4 -1
v -1 4 -1
v 1 4 -1
v 2 4 -1
v 3 4 -1
v -2 4 -2
v 2 4 -2
v -1 5 -0
v 1 5 -0
v -1 5 -1
v 1 5 -1
v -3 7 -1
v -2 7 -1
v 2 7 -1
v 3 7 -1
v -3 7 -2
v -2 7 -2
v -1 7 -2
v 0 7 -2
v 1 7 -2
v 2 7 -2
v 3 7 -2
v -1 7 -3
v 0 7 -3
v 1 7 -3
v -3 8 1
v -2 8 1
v 2 8 1
v 3 8 1
v -3 8 -0
v -2 8 -0
v 2 8 -0
v 3 8 -0
v -2 8 -2
v -1 8 -2
v 1 8 -2
v 2 8 -2
v -2 8 -3
v -1 8 -3
v 1 8 -3
v 2 8 -3
v -3 10 2
v -2 10 2
v 2 10 2
v 3 10 2
v -3 10 1
v -2 10 1
v 2 10 1
v 3 10 1
v -2 11 2
v -1 11 2
v 0 11 2
v 2 11 2
v -2 11 1
v -1 11 1
v 0 11 1
v 1 11 1
v 2 11 1
v -1 11 -3
v 0 11 -3
v 1 11 -3
v -1 11 -4
v 1 11 -4
v -1 12 2
v 0 12 2
v -1 12 1
v 0 12 1
v -2 1 1
v -1 1 1
v 1 1 1
v 2 1 1
v -2 1 -0
v -1 1 -0
v 1 1 -0
v 2 1 -0
v -3 12 2
v -2 12 2
v 2 12 2
v 3 12 2
v -3 12 -2
v -2 12 -2
v -1 12 -2
v 1 12 -2
v 2 12 -2
v 3 12 -2
v -2 12 -3
v -1 12 -3
v 1 12 -3
v 2 12 -3
v -1 12 -4
v 1 12 -4
v -2 13 2
v 2 13 2
v -1 13 1
v 1 13 1
v -2 13 -2
v -1 13 -2
v 1 13 -2
v 2 13 -2
v -1 13 -3
v 1 13 -3
v -1 14 1
v 1 14 1
v -1 14 -2
v 1 14 -2

# faces
f 3/4/1 2/4/1 1/4/1
f 4/4/1 2/4/1 3/4/1
f 5/12/1 4/12/1 3/12/1
f 8/12/1 5/12/1 3/12/1
f 9/6/1 6/6/1 5/6/1
f 9/12/1 5/12/1 8/12/1
f 10/6/1 6/6/1 9/6/1
f 11/6/1 8/6/1 7/6/1
f 11/12/1 9/12/1 8/12/1
f 12/8/1 10/8/1 9/8/1
f 12/12/1 9/12/1 11/12/1
f 13/8/1 10/8/1 12/8/1
f 15/6/1 11/6/1 7/6/1
f 15/6/1 12/6/1 11/6/1
f 16/6/1 12/6/1 15/6/1
f 17/5/1 13/5/1 12/5/1
f 17/6/1 12/6/1 16/6/1
f 18/6/1 16/6/1 15/6/1
f 18/6/1 15/6/1 14/6/1
f 19/5/1 17/5/1 16/5/1
f 19/6/1 16/6/1 18/6/1
f 20/5/1 19/5/1 18/5/1
f 21/5/1 13/5/1 17/5/1
f 21/5/1 19/5/1 20/5/1
f 21/5/1 17/5/1 19/5/1
f 24/14/1 23/14/1 22/14/1
f 25/14/1 23/14/1 24/14/1
f 26/14/1 23/14/1 25/14/1
f 27/14/1 23/14/1 26/14/1
f 29/4/1 27/4/1 26/4/1
f 30/4/1 27/4/1 29/4/1
f 32/2/1 29/2/1 28/2/1
f 33/2/1 29/2/1 32/2/1
f 34/2/1 31/2/1 30/2/1
f 35/2/1 31/2/1 34/2/1
f 36/12/1 35/12/1 34/12/1
f 37/12/1 35/12/1 36/12/1
f 38/12/1 33/12/1 32/12/1
f 39/12/1 33/12/1 38/12/1
f 42/8/1 41/8/1 40/8/1
f 43/8/1 41/8/1 42/8/1
f 45/5/1 43/5/1 42/5/1
f 46/5/1 43/5/1 45/5/1
f 47/5/1 45/5/1 44/5/1
f 48/5/1 45/5/1 47/5/1
f 51/8/1 50/8/1 49/8/1
f 52/8/1 50/8/1 51/8/1
f 56/6/1 54/6/1 53/6/1
f 57/6/1 54/6/1 56/6/1
f 59/6/1 56/6/1 55/6/1
f 60/6/1 56/6/1 59/6/1
f 61/5/1 59/5/1 58/5/1
f 62/5/1 59/5/1 61/5/1
f 65/5/1 64/5/1 63/5/1
f 66/5/1 64/5/1 65/5/1
f 69/14/1 68/14/1 67/14/1
f 70/14/1 68/14/1 69/14/1
f 71/14/1 68/14/1 70/14/1
f 72/14/1 68/14/1 71/14/1
f 73/4/1 72/4/1 71/4/1
f 74/4/1 72/4/1 73/4/1
f 75/4/1 74/4/1 73/4/1
f 76/4/1 74/4/1 75/4/1
f 79/6/1 78/6/1 77/6/1
f 80/6/1 78/6/1 79/6/1
f 81/6/2 82/6/2 83/6/2
f 83/6/2 82/6/2 84/6/2
f 85/14/2 86/14/2 87/14/2
f 87/14/2 86/14/2 88/14/2
f 88/14/2 86/14/2 89/14/2
f 89/14/2 86/14/2 90/14/2
f 89/4/2 90/4/2 91/4/2
f 91/4/2 90/4/2 92/4/2
f 91/4/2 92/4/2 93/4/2
f 93/4/2 92/4/2 94/4/2
f 95/5/2 96/5/2 97/5/2
f 97/5/2 96/5/2 98/5/2
f 99/6/2 100/6/2 101/6/2
f 101/6/2 100/6/2 102/6/2
f 103/6/2 104/6/2 106/6/2
f 106/6/2 104/6/2 107/6/2
f 105/6/2 106/6/2 109/6/2
f 109/6/2 106/6/2 110/6/2
f 108/5/2 109/5/2 111/5/2
f 111/5/2 109/5/2 112/5/2
f 113/14/2 114/14/2 115/14/2
f 115/14/2 114/14/2 116/14/2
f 116/14/2 114/14/2 117/14/2
f 117/14/2 114/14/2 118/14/2
f 117/4/2 118/4/2 120/4/2
f 120/4/2 118/4/2 121/4/2
f 119/2/2 120/2/2 123/2/2
f 123/2/2 120/2/2 124/2/2
f 121/2/2 122/2/2 125/2/2
f 125/2/2 122/2/2 126/2/2
f 125/12/2 126/12/2 127/12/2
f 127/12/2 126/12/2 128/12/2
f 123/12/2 124/12/2 129/12/2
f 129/12/2 124/12/2 130/12/2
f 131/6/2 132/6/2 133/6/2
f 133/6/2 132/6/2 134/6/2
f 133/8/2 134/8/2 135/8/2
f 135/8/2 134/8/2 136/8/2
f 135/5/2 136/5/2 138/5/2
f 138/5/2 136/5/2 139/5/2
f 137/5/2 138/5/2 140/5/2
f 140/5/2 138/5/2 141/5/2
f 142/4/2 143/4/2 144/4/2
f 144/4/2 143/4/2 145/4/2
f 144/12/2 145/12/2 146/12/2
f 144/12/2 146/12/2 149/12/2
f 146/6/2 147/6/2 150/6/2
f 149/12/2 146/12/2 150/12/2
f 150/6/2 147/6/2 151/6/2
f 148/6/2 149/6/2 152/6/2
f 149/12/2 150/12/2 153/12/2
f 152/6/2 149/6/2 153/6/2
f 150/8/2 151/8/2 154/8/2
f 153/12/2 150/12/2 154/12/2
f 152/8/2 153/8/2 156/8/2
f 153/6/2 154/6/2 157/6/2
f 156/8/2 153/8/2 157/8/2
f 154/8/2 151/8/2 158/8/2
f 157/6/2 154/6/2 158/6/2
f 158/8/2 151/8/2 159/8/2
f 155/6/2 156/6/2 160/6/2
f 156/8/2 157/8/2 161/8/2
f 160/6/2 156/6/2 161/6/2
f 157/8/2 158/8/2 161/8/2
f 158/5/2 159/5/2 162/5/2
f 161/8/2 158/8/2 162/8/2
f 160/5/2 161/5/2 163/5/2
f 161/5/2 162/5/2 163/5/2
f 162/5/2 159/5/2 164/5/2
f 163/5/2 162/5/2 164/5/2
f 168/6/3 166/6/3 165/6/3
f 169/5/3 167/5/3 166/5/3
f 169/6/3 166/6/3 168/6/3
f 170/5/3 167/5/3 169/5/3
f 172/5/3 171/5/3 170/5/3
f 172/5/3 170/5/3 169/5/3
f 173/5/3 171/5/3 172/5/3
f 175/5/3 171/5/3 173/5/3
f 177/5/3 175/5/3 174/5/3
f 178/5/3 171/5/3 175/5/3
f 178/5/3 175/5/3 177/5/3
f 179/5/3 171/5/3 178/5/3
f 180/6/3 177/6/3 176/6/3
f 181/5/3 178/5/3 177/5/3
f 181/6/3 177/6/3 180/6/3
f 182/5/3 178/5/3 181/5/3
f 189/6/3 184/6/3 183/6/3
f 190/6/3 184/6/3 189/6/3
f 191/6/3 184/6/3 190/6/3
f 193/14/3 186/14/3 185/14/3
f 194/14/3 186/14/3 193/14/3
f 195/2/3 188/2/3 187/2/3
f 195/12/3 189/12/3 188/12/3
f 195/12/3 190/12/3 189/12/3
f 196/12/3 190/12/3 195/12/3
f 197/4/3 192/4/3 191/4/3
f 197/12/3 190/12/3 196/12/3
f 197/4/3 191/4/3 190/4/3
f 198/4/3 192/4/3 197/4/3
f 199/4/3 192/4/3 198/4/3
f 203/7/3 196/7/3 195/7/3
f 204/1/3 197/1/3 196/1/3
f 204/7/3 196/7/3 203/7/3
f 205/4/3 198/4/3 197/4/3
f 205/1/3 197/1/3 204/1/3
f 206/9/3 199/9/3 198/9/3
f 206/4/3 198/4/3 205/4/3
f 207/4/3 200/4/3 199/4/3
f 207/9/3 199/9/3 206/9/3
f 208/4/3 200/4/3 207/4/3
f 211/2/3 195/2/3 187/2/3
f 211/7/3 203/7/3 195/7/3
f 212/1/3 204/1/3 203/1/3
f 212/7/3 203/7/3 211/7/3
f 213/13/3 205/13/3 204/13/3
f 213/1/3 204/1/3 212/1/3
f 214/4/3 206/4/3 205/4/3
f 214/13/3 205/13/3 213/13/3
f 214/4/3 207/4/3 206/4/3
f 215/4/3 207/4/3 214/4/3
f 216/4/3 207/4/3 215/4/3
f 217/5/3 202/5/3 201/5/3
f 218/5/3 202/5/3 217/5/3
f 219/14/3 210/14/3 209/14/3
f 220/14/3 210/14/3 219/14/3
f 221/2/3 211/2/3 187/2/3
f 222/12/3 213/12/3 212/12/3
f 222/2/3 211/2/3 221/2/3
f 222/12/3 212/12/3 211/12/3
f 222/12/3 214/12/3 213/12/3
f 223/12/3 214/12/3 222/12/3
f 224/4/3 215/4/3 214/4/3
f 224/12/3 214/12/3 223/12/3
f 225/9/3 216/9/3 215/9/3
f 225/4/3 215/4/3 224/4/3
f 226/9/3 216/9/3 225/9/3
f 227/6/3 224/6/3 223/6/3
f 228/8/3 225/8/3 224/8/3
f 228/6/3 224/6/3 227/6/3
f 229/8/3 225/8/3 228/8/3
f 235/4/3 231/4/3 230/4/3
f 236/12/3 232/12/3 231/12/3
f 236/4/3 231/4/3 235/4/3
f 237/12/3 232/12/3 236/12/3
f 238/14/3 234/14/3 233/14/3
f 239/4/3 235/4/3 234/4/3
f 239/14/3 234/14/3 238/14/3
f 240/4/3 235/4/3 239/4/3
f 244/14/3 242/14/3 241/14/3
f 245/4/3 243/4/3 242/4/3
f 245/14/3 242/14/3 244/14/3
f 246/4/3 243/4/3 245/4/3
f 249/4/3 247/4/3 246/4/3
f 250/12/3 248/12/3 247/12/3
f 250/4/3 247/4/3 249/4/3
f 251/12/3 248/12/3 250/12/3
f 254/2/3 253/2/3 252/2/3
f 255/2/3 253/2/3 254/2/3
f 256/2/4 257/2/4 258/2/4
f 258/2/4 257/2/4 259/2/4
f 260/4/4 261/4/4 265/4/4
f 261/12/4 262/12/4 266/12/4
f 265/4/4 261/4/4 266/4/4
f 266/12/4 262/12/4 267/12/4
f 263/14/4 264/14/4 268/14/4
f 264/4/4 265/4/4 269/4/4
f 268/14/4 264/14/4 269/14/4
f 269/4/4 265/4/4 270/4/4
f 271/14/4 272/14/4 274/14/4
f 272/4/4 273/4/4 275/4/4
f 274/14/4 272/14/4 275/14/4
f 275/4/4 273/4/4 276/4/4
f 276/4/4 277/4/4 279/4/4
f 277/12/4 278/12/4 280/12/4
f 279/4/4 277/4/4 280/4/4
f 280/12/4 278/12/4 281/12/4
f 282/6/4 283/6/4 288/6/4
f 283/8/4 284/8/4 289/8/4
f 288/6/4 283/6/4 289/6/4
f 284/5/4 285/5/4 290/5/4
f 289/8/4 284/8/4 290/8/4
f 290/5/4 285/5/4 291/5/4
f 287/12/4 288/12/4 293/12/4
f 288/12/4 289/12/4 293/12/4
f 293/12/4 289/12/4 294/12/4
f 291/5/4 292/5/4 295/5/4
f 295/5/4 292/5/4 296/5/4
f 287/12/4 293/12/4 298/12/4
f 287/12/4 298/12/4 299/12/4
f 296/5/4 297/5/4 302/5/4
f 302/5/4 297/5/4 303/5/4
f 286/2/4 287/2/4 304/2/4
f 299/12/4 300/12/4 305/12/4
f 304/2/4 287/2/4 305/2/4
f 287/12/4 299/12/4 305/12/4
f 305/12/4 300/12/4 306/12/4
f 306/12/4 300/12/4 307/12/4
f 301/5/4 302/5/4 310/5/4
f 310/5/4 302/5/4 311/5/4
f 306/6/4 307/6/4 312/6/4
f 308/8/4 309/8/4 313/8/4
f 312/6/4 307/6/4 313/6/4
f 307/8/4 308/8/4 313/8/4
f 309/5/4 310/5/4 314/5/4
f 313/8/4 309/8/4 314/8/4
f 314/5/4 310/5/4 315/5/4
f 316/8/4 317/8/4 320/8/4
f 317/5/4 318/5/4 321/5/4
f 320/8/4 317/8/4 321/8/4
f 321/5/4 318/5/4 322/5/4
f 322/5/4 318/5/4 323/5/4
f 319/8/4 320/8/4 325/8/4
f 320/6/4 321/6/4 326/6/4
f 325/8/4 320/8/4 326/8/4
f 321/5/4 322/5/4 327/5/4
f 326/6/4 321/6/4 327/6/4
f 327/5/4 322/5/4 328/5/4
f 328/5/4 322/5/4 329/5/4
f 325/6/4 326/6/4 330/6/4
f 326/8/4 327/8/4 331/8/4
f 330/6/4 326/6/4 331/6/4
f 327/5/4 328/5/4 332/5/4
f 331/8/4 327/8/4 332/8/4
f 328/6/4 329/6/4 333/6/4
f 332/5/4 328/5/4 333/5/4
f 333/6/4 329/6/4 334/6/4
f 323/6/4 324/6/4 335/6/4
f 335/6/4 324/6/4 336/6/4
f 331/6/4 332/6/4 337/6/4
f 332/8/4 333/8/4 338/8/4
f 337/6/4 332/6/4 338/6/4
f 333/5/4 334/5/4 339/5/4
f 338/8/4 333/8/4 339/8/4
f 334/5/4 335/5/4 339/5/4
f 339/5/4 335/5/4 340/5/4
f 341/6/4 342/6/4 343/6/4
f 343/6/4 342/6/4 344/6/4
f 349/14/5 346/14/5 345/14/5
f 350/14/5 346/14/5 349/14/5
f 351/14/5 348/14/5 347/14/5
f 352/14/5 348/14/5 351/14/5
f 356/2/5 354/2/5 353/2/5
f 357/2/5 354/2/5 356/2/5
f 358/2/5 354/2/5 357/2/5
f 359/2/5 354/2/5 358/2/5
f 361/4/5 356/4/5 355/4/5
f 362/4/5 356/4/5 361/4/5
f 365/4/5 360/4/5 359/4/5
f 366/4/5 360/4/5 365/4/5
f 367/2/5 364/2/5 363/2/5
f 367/2/5 365/2/5 364/2/5
f 367/2/5 363/2/5 362/2/5
f 368/2/5 365/2/5 367/2/5
f 371/13/5 370/13/5 369/13/5
f 372/13/5 370/13/5 371/13/5
f 377/6/5 374/6/5 373/6/5
f 378/6/5 374/6/5 377/6/5
f 382/6/5 376/6/5 375/6/5
f 383/6/5 376/6/5 382/6/5
f 384/8/5 380/8/5 379/8/5
f 385/6/5 381/6/5 380/6/5
f 385/8/5 380/8/5 384/8/5
f 386/6/5 381/6/5 385/6/5
f 391/6/5 388/6/5 387/6/5
f 392/6/5 388/6/5 391/6/5
f 393/6/5 390/6/5 389/6/5
f 394/6/5 390/6/5 393/6/5
f 399/8/5 396/8/5 395/8/5
f 400/8/5 396/8/5 399/8/5
f 401/6/5 398/6/5 397/6/5
f 402/6/5 398/6/5 401/6/5
f 407/6/5 404/6/5 403/6/5
f 408/6/5 404/6/5 407/6/5
f 409/6/5 406/6/5 405/6/5
f 410/6/5 406/6/5 409/6/5
f 415/5/5 412/5/5 411/5/5
f 416/5/5 412/5/5 415/5/5
f 417/5/5 414/5/5 413/5/5
f 418/5/5 414/5/5 417/5/5
f 419/5/5 414/5/5 418/5/5
f 423/6/5 421/6/5 420/6/5
f 423/6/5 422/6/5 421/6/5
f 424/6/5 422/6/5 423/6/5
f 427/5/5 426/5/5 425/5/5
f 428/5/5 426/5/5 427/5/5
f 429/14/6 430/14/6 433/14/6
f 433/14/6 430/14/6 434/14/6
f 431/14/6 432/14/6 435/14/6
f 435/14/6 432/14/6 436/14/6
f 437/5/6 438/5/6 441/5/6
f 441/5/6 438/5/6 442/5/6
f 439/5/6 440/5/6 445/5/6
f 445/5/6 440/5/6 446/5/6
f 442/5/6 443/5/6 447/5/6
f 447/5/6 443/5/6 448/5/6
f 444/5/6 445/5/6 449/5/6
f 449/5/6 445/5/6 450/5/6
f 448/6/6 449/6/6 451/6/6
f 451/6/6 449/6/6 452/6/6
f 453/5/6 454/5/6 455/5/6
f 455/5/6 454/5/6 456/5/6
f 453/5/6 455/5/6 457/5/6
f 457/5/6 455/5/6 458/5/6
f 456/5/6 454/5/6 459/5/6
f 459/5/6 454/5/6 460/5/6
f 458/6/6 459/6/6 461/6/6
f 461/6/6 459/6/6 462/6/6
f 463/5/6 464/5/6 465/5/6
f 465/5/6 464/5/6 466/5/6
