# MagicaVoxel @ Ephtracy

# material
mtllib lettuce.mtl
usemtl palette

# normals
vn -1 0 0
vn 1 0 0
vn 0 0 1
vn 0 0 -1
vn 0 -1 0
vn 0 1 0

# texcoords
vt 0.541016 0.5
vt 0.548828 0.5
vt 0.556641 0.5

# verts
v -4 0 3
v -4 0 2
v -4 0 1
v -4 0 -0
v -4 1 4
v -4 1 3
v -4 1 2
v -4 1 1
v -4 1 -0
v -4 1 -1
v -4 1 -2
v -4 1 -3
v -4 2 4
v -4 2 3
v -4 2 2
v -4 2 1
v -4 2 -0
v -4 2 -1
v -4 2 -2
v -4 2 -3
v -3 0 4
v -3 0 3
v -3 0 -2
v -3 0 -3
v -3 1 4
v -3 1 3
v -3 1 1
v -3 1 -0
v -3 1 -2
v -3 1 -3
v -3 1 -4
v -3 2 1
v -3 2 -0
v -3 2 -3
v -3 2 -4
v -2 0 -1
v -2 0 -2
v -2 1 -1
v -2 1 -2
v -1 0 -3
v -1 0 -4
v -1 1 3
v -1 1 2
v -1 1 -3
v -1 1 -4
v -1 2 3
v -1 2 2
v 0 0 4
v 0 0 3
v 0 1 4
v 0 1 3
v 0 1 -3
v 0 1 -4
v 0 2 -3
v 0 2 -4
v 3 0 3
v 3 0 2
v 3 0 1
v 3 1 3
v 3 1 2
v 3 1 1
v -3 0 1
v -3 0 -0
v -3 1 4
v -3 1 3
v -3 1 1
v -3 1 -0
v -3 1 -2
v -3 1 -3
v -3 2 4
v -3 2 3
v -3 2 -2
v -3 2 -3
v -2 0 4
v -2 0 3
v -2 1 4
v -2 1 3
v -1 0 3
v -1 0 2
v -1 1 3
v -1 1 2
v -1 1 -3
v -1 1 -4
v -1 2 -3
v -1 2 -4
v 1 0 -3
v 1 0 -4
v 1 1 -3
v 1 2 -3
v 1 2 -4
v 3 0 -1
v 3 0 -2
v 3 0 -3
v 3 1 3
v 3 1 2
v 3 1 1
v 3 1 -1
v 3 1 -2
v 3 1 -3
v 3 2 3
v 3 2 1
v 3 2 -1
v 4 0 4
v 4 0 2
v 4 0 1
v 4 1 4
v 4 1 2
v 4 1 1
v -4 1 4
v -4 2 4
v -3 0 4
v -3 1 4
v -3 2 4
v -2 0 4
v -2 1 4
v 0 0 4
v 0 1 4
v 1 0 4
v 1 1 4
v 3 0 4
v 3 1 4
v 4 0 4
v 4 1 4
v -4 0 3
v -4 1 3
v -3 0 3
v -3 1 3
v -2 0 3
v -2 1 3
v -1 0 3
v -1 1 3
v -1 2 3
v 0 1 3
v 1 1 3
v 1 2 3
v 3 1 3
v 3 2 3
v -4 1 2
v -4 2 2
v -3 1 2
v -3 2 2
v -2 1 2
v -2 2 2
v -1 1 2
v -1 2 2
v -4 0 1
v -4 1 1
v -3 0 1
v -3 1 1
v -4 1 -0
v -4 2 -0
v -3 1 -0
v -3 2 -0
v -2 0 -1
v -2 1 -1
v 0 1 -1
v 3 0 -1
v 3 1 -1
v -4 1 -2
v -4 2 -2
v -3 0 -2
v -3 1 -2
v -3 2 -2
v -2 0 -2
v -2 1 -2
v -3 1 -3
v -3 2 -3
v -2 1 -3
v -2 2 -3
v -1 1 -3
v -1 2 -3
v 0 1 -3
v 0 2 -3
v 1 1 -3
v 1 2 -3
v -4 1 3
v -4 2 3
v -3 1 3
v -3 2 3
v 0 0 3
v 0 1 3
v 1 0 3
v 1 1 3
v 3 0 3
v 3 1 3
v -4 0 2
v -4 1 2
v -3 0 2
v -3 1 2
v -2 1 2
v -1 0 2
v -1 1 2
v -4 1 1
v -4 2 1
v -3 1 1
v -3 2 1
v 3 0 1
v 3 1 1
v 4 0 1
v 4 1 1
v -4 0 -0
v -4 1 -0
v -3 0 -0
v -3 1 -0
v -4 1 -1
v -4 2 -1
v -3 1 -1
v -3 2 -1
v -2 1 -1
v -2 2 -1
v 0 1 -1
v 0 2 -1
v 3 1 -1
v 3 2 -1
v -4 1 -3
v -4 2 -3
v -3 0 -3
v -3 1 -3
v -3 2 -3
v -2 1 -3
v -1 0 -3
v -1 1 -3
v 1 0 -3
v 1 1 -3
v 2 0 -3
v 2 1 -3
v 3 0 -3
v 3 1 -3
v -3 1 -4
v -3 2 -4
v -2 1 -4
v -2 2 -4
v -1 0 -4
v -1 1 -4
v -1 2 -4
v 0 0 -4
v 0 1 -4
v 0 2 -4
v 1 0 -4
v 1 2 -4
v -3 0 4
v -2 0 4
v 0 0 4
v 1 0 4
v 3 0 4
v 4 0 4
v -4 0 3
v -3 0 3
v -2 0 3
v -1 0 3
v 0 0 3
v 1 0 3
v 3 0 3
v -4 0 2
v -3 0 2
v -1 0 2
v 3 0 2
v 4 0 2
v -4 0 1
v -3 0 1
v 3 0 1
v 4 0 1
v -4 0 -0
v -3 0 -0
v -2 0 -1
v 3 0 -1
v -3 0 -2
v -2 0 -2
v 0 0 -2
v 1 0 -2
v 2 0 -2
v 3 0 -2
v -3 0 -3
v -1 0 -3
v 1 0 -3
v 2 0 -3
v 3 0 -3
v -1 0 -4
v 0 0 -4
v 1 0 -4
v -4 1 4
v -3 1 4
v -4 1 3
v -3 1 3
v -1 1 3
v 0 1 3
v 1 1 3
v 3 1 3
v -4 1 2
v -3 1 2
v -2 1 2
v -1 1 2
v 3 1 2
v -4 1 1
v -3 1 1
v -2 1 1
v -1 1 1
v 0 1 1
v 1 1 1
v 3 1 1
v -4 1 -0
v -3 1 -0
v -2 1 -0
v 0 1 -0
v 1 1 -0
v -4 1 -1
v -3 1 -1
v -2 1 -1
v 0 1 -1
v 3 1 -1
v -4 1 -2
v -3 1 -2
v -4 1 -3
v -3 1 -3
v -2 1 -3
v -1 1 -3
v -3 1 -4
v -2 1 -4
v -1 1 -4
v -3 1 4
v -2 1 4
v 0 1 4
v 1 1 4
v 3 1 4
v 4 1 4
v -4 1 3
v -3 1 3
v -2 1 3
v -1 1 3
v 0 1 3
v 1 1 3
v 3 1 3
v -4 1 2
v -3 1 2
v -2 1 2
v -1 1 2
v 3 1 2
v 4 1 2
v -4 1 1
v -3 1 1
v 3 1 1
v 4 1 1
v -4 1 -0
v -3 1 -0
v -2 1 -1
v 0 1 -1
v 3 1 -1
v -3 1 -2
v -2 1 -2
v 0 1 -2
v 1 1 -2
v 2 1 -2
v 3 1 -2
v -3 1 -3
v -2 1 -3
v -1 1 -3
v 0 1 -3
v 1 1 -3
v 2 1 -3
v 3 1 -3
v -1 1 -4
v 0 1 -4
v -4 2 4
v -3 2 4
v -4 2 3
v -3 2 3
v -1 2 3
v 1 2 3
v 3 2 3
v -4 2 2
v -3 2 2
v -2 2 2
v -1 2 2
v -4 2 1
v -3 2 1
v -2 2 1
v -1 2 1
v 0 2 1
v 1 2 1
v 3 2 1
v -4 2 -0
v -3 2 -0
v -2 2 -0
v 0 2 -0
v 1 2 -0
v -4 2 -1
v -3 2 -1
v -2 2 -1
v 0 2 -1
v 3 2 -1
v -4 2 -2
v -3 2 -2
v -4 2 -3
v -3 2 -3
v -2 2 -3
v -1 2 -3
v 0 2 -3
v 1 2 -3
v -3 2 -4
v -2 2 -4
v -1 2 -4
v 0 2 -4
v 1 2 -4

# faces
f 6/2/1 2/2/1 1/2/1
f 7/2/1 2/2/1 6/2/1
f 8/2/1 4/2/1 3/2/1
f 9/2/1 4/2/1 8/2/1
f 13/1/1 6/1/1 5/1/1
f 14/1/1 6/1/1 13/1/1
f 15/1/1 8/1/1 7/1/1
f 16/1/1 8/1/1 15/1/1
f 17/2/1 10/2/1 9/2/1
f 18/2/1 10/2/1 17/2/1
f 19/2/1 12/2/1 11/2/1
f 20/2/1 12/2/1 19/2/1
f 25/2/1 22/2/1 21/2/1
f 26/2/1 22/2/1 25/2/1
f 29/1/1 24/1/1 23/1/1
f 30/1/1 24/1/1 29/1/1
f 32/1/1 28/1/1 27/1/1
f 33/1/1 28/1/1 32/1/1
f 34/2/1 31/2/1 30/2/1
f 35/2/1 31/2/1 34/2/1
f 38/1/1 37/1/1 36/1/1
f 39/1/1 37/1/1 38/1/1
f 44/1/1 41/1/1 40/1/1
f 45/1/1 41/1/1 44/1/1
f 46/3/1 43/3/1 42/3/1
f 47/3/1 43/3/1 46/3/1
f 50/2/1 49/2/1 48/2/1
f 51/2/1 49/2/1 50/2/1
f 54/2/1 53/2/1 52/2/1
f 55/2/1 53/2/1 54/2/1
f 59/2/1 57/2/1 56/2/1
f 60/1/1 58/1/1 57/1/1
f 60/2/1 57/2/1 59/2/1
f 61/1/1 58/1/1 60/1/1
f 62/2/2 63/2/2 66/2/2
f 66/2/2 63/2/2 67/2/2
f 64/1/2 65/1/2 70/1/2
f 70/1/2 65/1/2 71/1/2
f 68/2/2 69/2/2 72/2/2
f 72/2/2 69/2/2 73/2/2
f 74/2/2 75/2/2 76/2/2
f 76/2/2 75/2/2 77/2/2
f 78/1/2 79/1/2 80/1/2
f 80/1/2 79/1/2 81/1/2
f 82/1/2 83/1/2 84/1/2
f 84/1/2 83/1/2 85/1/2
f 86/2/2 87/2/2 88/2/2
f 88/2/2 87/2/2 89/2/2
f 89/2/2 87/2/2 90/2/2
f 91/1/2 92/1/2 97/1/2
f 92/3/2 93/3/2 98/3/2
f 97/1/2 92/1/2 98/1/2
f 98/3/2 93/3/2 99/3/2
f 95/2/2 96/2/2 100/2/2
f 94/2/2 95/2/2 100/2/2
f 96/3/2 97/3/2 101/3/2
f 100/2/2 96/2/2 101/2/2
f 101/3/2 97/3/2 102/3/2
f 103/2/2 104/2/2 106/2/2
f 104/1/2 105/1/2 107/1/2
f 106/2/2 104/2/2 107/2/2
f 107/1/2 105/1/2 108/1/2
f 112/1/3 110/1/3 109/1/3
f 113/1/3 110/1/3 112/1/3
f 114/2/3 112/2/3 111/2/3
f 115/2/3 112/2/3 114/2/3
f 118/2/3 117/2/3 116/2/3
f 119/2/3 117/2/3 118/2/3
f 120/3/3 119/3/3 118/3/3
f 121/3/3 119/3/3 120/3/3
f 122/2/3 121/2/3 120/2/3
f 123/2/3 121/2/3 122/2/3
f 126/2/3 125/2/3 124/2/3
f 127/2/3 125/2/3 126/2/3
f 130/1/3 129/1/3 128/1/3
f 131/1/3 129/1/3 130/1/3
f 133/3/3 132/3/3 131/3/3
f 134/3/3 132/3/3 133/3/3
f 135/3/3 132/3/3 134/3/3
f 136/2/3 135/2/3 134/2/3
f 137/2/3 135/2/3 136/2/3
f 140/1/3 139/1/3 138/1/3
f 141/1/3 139/1/3 140/1/3
f 142/2/3 141/2/3 140/2/3
f 143/2/3 141/2/3 142/2/3
f 144/1/3 143/1/3 142/1/3
f 145/1/3 143/1/3 144/1/3
f 148/2/3 147/2/3 146/2/3
f 149/2/3 147/2/3 148/2/3
f 152/2/3 151/2/3 150/2/3
f 153/2/3 151/2/3 152/2/3
f 156/1/3 155/1/3 154/1/3
f 157/1/3 156/1/3 154/1/3
f 158/1/3 156/1/3 157/1/3
f 162/2/3 160/2/3 159/2/3
f 163/2/3 160/2/3 162/2/3
f 164/1/3 162/1/3 161/1/3
f 165/1/3 162/1/3 164/1/3
f 168/2/3 167/2/3 166/2/3
f 169/2/3 167/2/3 168/2/3
f 170/1/3 169/1/3 168/1/3
f 171/1/3 169/1/3 170/1/3
f 174/2/3 173/2/3 172/2/3
f 175/2/3 173/2/3 174/2/3
f 176/1/4 177/1/4 178/1/4
f 178/1/4 177/1/4 179/1/4
f 180/2/4 181/2/4 182/2/4
f 182/2/4 181/2/4 183/2/4
f 182/3/4 183/3/4 184/3/4
f 184/3/4 183/3/4 185/3/4
f 186/2/4 187/2/4 188/2/4
f 188/2/4 187/2/4 189/2/4
f 188/1/4 189/1/4 190/1/4
f 188/1/4 190/1/4 191/1/4
f 191/1/4 190/1/4 192/1/4
f 193/1/4 194/1/4 195/1/4
f 195/1/4 194/1/4 196/1/4
f 197/1/4 198/1/4 199/1/4
f 199/1/4 198/1/4 200/1/4
f 201/2/4 202/2/4 203/2/4
f 203/2/4 202/2/4 204/2/4
f 205/2/4 206/2/4 207/2/4
f 207/2/4 206/2/4 208/2/4
f 207/1/4 208/1/4 209/1/4
f 209/1/4 208/1/4 210/1/4
f 209/2/4 210/2/4 211/2/4
f 211/2/4 210/2/4 212/2/4
f 211/3/4 212/3/4 213/3/4
f 213/3/4 212/3/4 214/3/4
f 215/2/4 216/2/4 218/2/4
f 218/2/4 216/2/4 219/2/4
f 217/1/4 218/1/4 220/1/4
f 217/1/4 220/1/4 221/1/4
f 221/1/4 220/1/4 222/1/4
f 223/1/4 224/1/4 225/1/4
f 225/1/4 224/1/4 226/1/4
f 225/3/4 226/3/4 227/3/4
f 227/3/4 226/3/4 228/3/4
f 229/2/4 230/2/4 231/2/4
f 231/2/4 230/2/4 232/2/4
f 231/1/4 232/1/4 234/1/4
f 234/1/4 232/1/4 235/1/4
f 233/1/4 234/1/4 236/1/4
f 236/1/4 234/1/4 237/1/4
f 236/2/4 237/2/4 239/2/4
f 237/2/4 238/2/4 239/2/4
f 239/2/4 238/2/4 240/2/4
f 248/2/5 242/2/5 241/2/5
f 249/2/5 242/2/5 248/2/5
f 251/2/5 244/2/5 243/2/5
f 252/3/5 245/3/5 244/3/5
f 252/2/5 244/2/5 251/2/5
f 253/2/5 246/2/5 245/2/5
f 253/3/5 245/3/5 252/3/5
f 254/2/5 248/2/5 247/2/5
f 255/1/5 250/1/5 249/1/5
f 255/2/5 248/2/5 254/2/5
f 255/1/5 249/1/5 248/1/5
f 256/1/5 250/1/5 255/1/5
f 257/2/5 246/2/5 253/2/5
f 258/2/5 246/2/5 257/2/5
f 261/1/5 258/1/5 257/1/5
f 262/1/5 258/1/5 261/1/5
f 263/2/5 260/2/5 259/2/5
f 264/2/5 260/2/5 263/2/5
f 268/1/5 266/1/5 265/1/5
f 269/1/5 266/1/5 268/1/5
f 270/1/5 266/1/5 269/1/5
f 271/1/5 266/1/5 270/1/5
f 272/1/5 266/1/5 271/1/5
f 273/1/5 268/1/5 267/1/5
f 273/1/5 269/1/5 268/1/5
f 274/1/5 269/1/5 273/1/5
f 275/2/5 270/2/5 269/2/5
f 275/1/5 271/1/5 270/1/5
f 276/3/5 272/3/5 271/3/5
f 276/1/5 271/1/5 275/1/5
f 277/3/5 272/3/5 276/3/5
f 278/1/5 269/1/5 274/1/5
f 279/2/5 275/2/5 269/2/5
f 279/1/5 269/1/5 278/1/5
f 280/2/5 275/2/5 279/2/5
f 283/1/5 282/1/5 281/1/5
f 284/1/5 282/1/5 283/1/5
f 292/3/5 286/3/5 285/3/5
f 292/3/5 287/3/5 286/3/5
f 293/2/5 288/2/5 287/2/5
f 294/1/5 290/1/5 289/1/5
f 295/2/5 291/2/5 290/2/5
f 295/1/5 290/1/5 294/1/5
f 296/1/5 292/1/5 291/1/5
f 296/2/5 291/2/5 295/2/5
f 297/3/5 287/3/5 292/3/5
f 297/1/5 292/1/5 296/1/5
f 298/3/5 287/3/5 297/3/5
f 299/2/5 293/2/5 287/2/5
f 299/3/5 287/3/5 298/3/5
f 300/2/5 293/2/5 299/2/5
f 302/1/5 296/1/5 295/1/5
f 302/1/5 298/1/5 297/1/5
f 302/1/5 297/1/5 296/1/5
f 303/1/5 298/1/5 302/1/5
f 304/2/5 299/2/5 298/2/5
f 304/1/5 298/1/5 303/1/5
f 305/3/5 300/3/5 299/3/5
f 305/2/5 299/2/5 304/2/5
f 306/2/5 302/2/5 301/2/5
f 307/1/5 303/1/5 302/1/5
f 307/2/5 302/2/5 306/2/5
f 308/2/5 304/2/5 303/2/5
f 308/1/5 303/1/5 307/1/5
f 309/3/5 305/3/5 304/3/5
f 309/2/5 304/2/5 308/2/5
f 310/3/5 300/3/5 305/3/5
f 310/3/5 305/3/5 309/3/5
f 313/2/5 312/2/5 311/2/5
f 314/2/5 312/2/5 313/2/5
f 317/2/5 315/2/5 314/2/5
f 318/1/5 316/1/5 315/1/5
f 318/2/5 315/2/5 317/2/5
f 319/1/5 316/1/5 318/1/5
f 320/2/6 321/2/6 327/2/6
f 327/2/6 321/2/6 328/2/6
f 322/2/6 323/2/6 330/2/6
f 323/3/6 324/3/6 331/3/6
f 330/2/6 323/2/6 331/2/6
f 324/2/6 325/2/6 332/2/6
f 331/3/6 324/3/6 332/3/6
f 326/2/6 327/2/6 333/2/6
f 328/1/6 329/1/6 334/1/6
f 333/2/6 327/2/6 334/2/6
f 327/1/6 328/1/6 334/1/6
f 334/1/6 329/1/6 335/1/6
f 335/1/6 329/1/6 336/1/6
f 332/2/6 325/2/6 337/2/6
f 337/2/6 325/2/6 338/2/6
f 337/1/6 338/1/6 341/1/6
f 341/1/6 338/1/6 342/1/6
f 339/2/6 340/2/6 343/2/6
f 343/2/6 340/2/6 344/2/6
f 345/1/6 346/1/6 349/1/6
f 346/1/6 347/1/6 349/1/6
f 349/1/6 347/1/6 350/1/6
f 350/1/6 347/1/6 351/1/6
f 351/1/6 347/1/6 352/1/6
f 352/1/6 347/1/6 353/1/6
f 348/1/6 349/1/6 354/1/6
f 349/1/6 350/1/6 354/1/6
f 354/1/6 350/1/6 355/1/6
f 355/1/6 350/1/6 356/1/6
f 350/2/6 351/2/6 357/2/6
f 356/1/6 350/1/6 357/1/6
f 351/1/6 352/1/6 358/1/6
f 357/2/6 351/2/6 358/2/6
f 352/3/6 353/3/6 359/3/6
f 358/1/6 352/1/6 359/1/6
f 359/3/6 353/3/6 360/3/6
f 356/1/6 357/1/6 361/1/6
f 361/1/6 357/1/6 362/1/6
f 363/1/6 364/1/6 365/1/6
f 365/1/6 364/1/6 366/1/6
f 367/3/6 368/3/6 373/3/6
f 370/1/6 371/1/6 374/1/6
f 371/2/6 372/2/6 375/2/6
f 374/1/6 371/1/6 375/1/6
f 372/1/6 373/1/6 376/1/6
f 375/2/6 372/2/6 376/2/6
f 373/3/6 368/3/6 377/3/6
f 376/1/6 373/1/6 377/1/6
f 377/3/6 368/3/6 378/3/6
f 368/2/6 369/2/6 379/2/6
f 378/3/6 368/3/6 379/3/6
f 379/2/6 369/2/6 380/2/6
f 377/1/6 378/1/6 382/1/6
f 375/1/6 376/1/6 382/1/6
f 376/1/6 377/1/6 382/1/6
f 382/1/6 378/1/6 383/1/6
f 378/2/6 379/2/6 384/2/6
f 383/1/6 378/1/6 384/1/6
f 379/3/6 380/3/6 385/3/6
f 384/2/6 379/2/6 385/2/6
f 381/2/6 382/2/6 386/2/6
f 382/1/6 383/1/6 387/1/6
f 386/2/6 382/2/6 387/2/6
f 383/2/6 384/2/6 388/2/6
f 387/1/6 383/1/6 388/1/6
f 384/3/6 385/3/6 389/3/6
f 388/2/6 384/2/6 389/2/6
f 385/3/6 380/3/6 390/3/6
f 389/3/6 385/3/6 390/3/6
f 391/2/6 392/2/6 393/2/6
f 393/2/6 392/2/6 394/2/6
f 394/2/6 395/2/6 399/2/6
f 395/1/6 396/1/6 400/1/6
f 399/2/6 395/2/6 400/2/6
f 400/1/6 396/1/6 401/1/6
f 397/2/6 398/2/6 402/2/6
f 402/2/6 398/2/6 403/2/6
